700 0 1 0           
30 Autodesk Translation Framework 20 ASM 226.0.3.65535 NT 24 Fri Apr  2 13:51:55 2021 
1 9.999999999999999547e-07 1.000000000000000036e-10 
body $1 -1 $-1 $2 $-1 $3 #
rgb_color-st-attrib $-1 -1 $4 $-1 $0 0.7490196078431372584 0.7490196078431372584 0.7490196078431372584 #
lump $-1 -1 $-1 $-1 $5 $0 #
transform $-1 -1 1 0 0 0 1 0 0 0 1 0 0 0 1 no_rotate no_reflect no_shear #
DXID-attrib $-1 -1 $-1 $1 $0 @10 ASM ENTITY @102 FLIPPERSTAND.IPT|:|57F7719D3790E437C42C0EF1C87B675B592CCFD4|:|DA4B9237BACCCDF19C0760CAB7AEC4A8359010B0 #
shell $-1 -1 $-1 $-1 $-1 $6 $-1 $2 #
face $7 -1 $-1 $8 $9 $5 $-1 $10 forward single #
DXID-attrib $-1 -1 $-1 $-1 $6 @10 ASM ENTITY @36 e64ee9a5-bd85-4852-8de0-8752c3bc6641 #
face $11 -1 $-1 $12 $13 $5 $-1 $14 forward single #
loop $-1 -1 $-1 $-1 $15 $6 #
plane-surface $-1 -1 $-1 44.99999999999998579 30 -27.49999999999999289 0.7071067811865475727 0.7071067811865474617 4.186913223156737887e-16 5.921189464667507334e-15 0 -10 forward_v I I I I #
DXID-attrib $-1 -1 $-1 $-1 $8 @10 ASM ENTITY @36 be9c3540-37f9-4249-bb75-029305e24b20 #
face $16 -1 $-1 $17 $18 $5 $-1 $19 forward single #
loop $-1 -1 $-1 $-1 $20 $8 #
plane-surface $-1 -1 $-1 -35 50 -35.00000000000000711 0 1 0 0 0 10 forward_v I I I I #
coedge $-1 -1 $-1 $21 $22 $23 $24 forward $9 $-1 #
DXID-attrib $-1 -1 $-1 $-1 $12 @10 ASM ENTITY @36 e74f757e-174d-4ff2-b35f-9f3ce5da153e #
face $25 -1 $-1 $26 $27 $5 $-1 $28 forward single #
loop $-1 -1 $-1 $-1 $23 $12 #
plane-surface $-1 -1 $-1 65 0 -49.99999999999997158 2.664535259100376091e-16 0 -1 -10 -0 -2.664535259100376091e-15 forward_v I I I I #
coedge $-1 -1 $-1 $29 $30 $21 $31 reversed $13 $-1 #
coedge $-1 -1 $-1 $32 $15 $20 $31 forward $9 $-1 #
coedge $-1 -1 $-1 $15 $32 $33 $34 forward $9 $-1 #
coedge $-1 -1 $-1 $35 $36 $15 $24 reversed $18 $-1 #
edge $-1 -1 $-1 $37 -1.060660171779821415 $38 4.596194077712558723 $23 $39 forward @7 unknown #
DXID-attrib $-1 -1 $-1 $-1 $17 @10 ASM ENTITY @36 176a6ae0-5680-481c-b91b-c7505c01cbcb #
face $40 -1 $-1 $41 $42 $5 $-1 $43 forward single #
loop $-1 -1 $-1 $-1 $44 $17 #
plane-surface $-1 -1 $-1 -27.49999999999996447 30 -115 4.186913223156732956e-16 0.7071067811865474617 -0.7071067811865474617 -10 0 -5.921189464667501023e-15 forward_v I I I I #
coedge $-1 -1 $-1 $45 $20 $36 $46 forward $13 $-1 #
coedge $-1 -1 $-1 $20 $45 $47 $48 forward $13 $-1 #
edge $-1 -1 $-1 $38 -2.249999999999998224 $49 0.7499999999999995559 $20 $50 forward @7 unknown #
coedge $-1 -1 $-1 $22 $21 $51 $52 forward $9 $-1 #
coedge $-1 -1 $-1 $53 $54 $22 $34 reversed $55 $-1 #
edge $-1 -1 $-1 $56 -0.7499999999999977796 $37 2.249999999999999556 $33 $57 forward @7 unknown #
coedge $-1 -1 $-1 $58 $23 $54 $59 reversed $18 $-1 #
coedge $-1 -1 $-1 $23 $60 $29 $46 reversed $18 $-1 #
vertex $-1 -1 $-1 $24 $61 #
vertex $-1 -1 $-1 $24 $62 #
straight-curve $-1 -1 $-1 57.5 17.5 -49.99999999999997158 -7.071067811865474617 7.071067811865475505 -1.884110950420530299e-15 I I #
DXID-attrib $-1 -1 $-1 $-1 $26 @10 ASM ENTITY @36 fa4b7a5a-5a88-4a77-9db2-751ac7a2f42e #
face $63 -1 $-1 $64 $65 $5 $-1 $66 forward single #
loop $-1 -1 $-1 $-1 $67 $26 #
plane-surface $-1 -1 $-1 -19.99999999999995737 0 -135 5.92118946466750122e-16 0 -1 -10 -0 -5.921189464667501023e-15 forward_v I I I I #
coedge $-1 -1 $-1 $68 $69 $70 $71 forward $27 $-1 #
coedge $-1 -1 $-1 $30 $29 $72 $73 reversed $13 $-1 #
edge $74 -1 $-1 $38 -16 $75 -13.5 $36 $76 forward @7 unknown #
coedge $-1 -1 $-1 $77 $51 $30 $48 reversed $78 $-1 #
edge $79 -1 $-1 $80 -6.499999999999998224 $49 -4 $47 $81 forward @7 unknown #
vertex $-1 -1 $-1 $31 $82 #
straight-curve $-1 -1 $-1 24.99999999999998579 50 -27.5 -5.921189464667507334e-15 0 10 F -14.65000099999999961 F 13.15000099999999961 #
coedge $-1 -1 $-1 $47 $83 $32 $52 reversed $78 $-1 #
edge $-1 -1 $-1 $49 -1.590990257669732344 $56 4.06586399182264735 $51 $84 forward @7 unknown #
coedge $-1 -1 $-1 $85 $33 $83 $86 reversed $55 $-1 #
coedge $-1 -1 $-1 $33 $85 $35 $59 forward $55 $-1 #
loop $-1 -1 $-1 $-1 $33 $87 #
vertex $-1 -1 $-1 $52 $88 #
straight-curve $-1 -1 $-1 64.99999999999998579 10 -27.49999999999997868 5.921189464667507334e-15 0 -10 F -13.15000099999999961 F 14.65000099999999961 #
coedge $-1 -1 $-1 $60 $35 $89 $90 reversed $18 $-1 #
edge $91 -1 $-1 $92 0 $37 1 $54 $93 forward @7 unknown #
coedge $-1 -1 $-1 $36 $58 $94 $95 reversed $18 $-1 #
point $-1 -1 $-1 65 10 -49.99999999999997158 #
point $-1 -1 $-1 25 50 -49.99999999999998579 #
DXID-attrib $-1 -1 $-1 $-1 $41 @10 ASM ENTITY @36 fec85957-2dc8-45f8-8ca6-f23f5f94e623 #
face $96 -1 $-1 $97 $98 $5 $-1 $99 forward single #
loop $-1 -1 $-1 $-1 $100 $41 #
plane-surface $-1 -1 $-1 -19.99999999999999645 0 -50 1 0 4.329869796038110902e-16 4.329869796038110508e-15 0 -10 forward_v I I I I #
coedge $-1 -1 $-1 $101 $102 $69 $103 reversed $42 $-1 #
coedge $-1 -1 $-1 $104 $44 $105 $106 forward $27 $-1 #
coedge $-1 -1 $-1 $44 $104 $67 $103 forward $27 $-1 #
coedge $-1 -1 $-1 $107 $108 $44 $71 reversed $109 $-1 #
edge $-1 -1 $-1 $110 -1.060660171779822747 $111 4.596194077712558723 $70 $112 forward @7 unknown #
coedge $-1 -1 $-1 $94 $113 $45 $73 forward $114 $-1 #
edge $-1 -1 $-1 $80 0.2500000000000004441 $75 3.249999999999998668 $72 $115 forward @7 unknown #
DXID-attrib $-1 -1 $-1 $-1 $46 @10 ASM ENTITY @36 8e139f19-cd15-44f4-8679-60bbd2fffaf6 #
vertex $-1 -1 $-1 $46 $116 #
straight-curve $-1 -1 $-1 -135 50 -50.00000000000002842 -10 -0 -2.664535259100376091e-15 I I #
coedge $-1 -1 $-1 $117 $47 $113 $118 reversed $78 $-1 #
loop $-1 -1 $-1 $-1 $51 $119 #
DXID-attrib $-1 -1 $-1 $-1 $48 @10 ASM ENTITY @36 303baa4a-1d6b-4000-8321-75b432acda89 #
vertex $-1 -1 $-1 $73 $120 #
straight-curve $-1 -1 $-1 64.99999999999998579 50 -20 10 0 1.332267629550188046e-15 I I #
point $-1 -1 $-1 24.99999999999998224 50 -20.00000000000000355 #
coedge $-1 -1 $-1 $51 $117 $53 $86 forward $78 $-1 #
straight-curve $-1 -1 $-1 36.24999999999998579 38.75 -20.00000000000000355 7.071067811865474617 -7.071067811865475505 9.420554752102651493e-16 I I #
coedge $-1 -1 $-1 $54 $53 $121 $122 reversed $55 $-1 #
edge $123 -1 $-1 $124 0 $56 1 $83 $125 forward @7 unknown #
face $126 -1 $-1 $127 $55 $5 $-1 $128 forward single #
point $-1 -1 $-1 64.99999999999998579 10 -20 #
coedge $-1 -1 $-1 $121 $129 $58 $90 forward $130 $-1 #
edge $131 -1 $-1 $132 13.5 $92 20 $89 $133 forward @7 unknown #
DXID-attrib $-1 -1 $-1 $-1 $59 @10 ASM ENTITY @36 d3822fa7-299e-4494-a88c-5feb62400db6 #
vertex $-1 -1 $-1 $59 $134 #
straight-curve $-1 -1 $-1 65 0 -49.99999999999997158 0 10 0 I I #
coedge $-1 -1 $-1 $135 $72 $60 $95 forward $114 $-1 #
edge $-1 -1 $-1 $75 -5 $132 0 $94 $136 forward @7 unknown #
DXID-attrib $-1 -1 $-1 $-1 $64 @10 ASM ENTITY @36 b75fcfe2-22c6-4185-a935-97df85ec58ef #
face $137 -1 $-1 $138 $139 $5 $-1 $14 forward single #
loop $-1 -1 $-1 $-1 $140 $64 #
plane-surface $-1 -1 $-1 -115 30 -42.50000000000003553 -0.7071067811865474617 0.7071067811865474617 -4.186913223156732956e-16 -5.921189464667501023e-15 0 10 forward_v I I I I #
coedge $-1 -1 $-1 $141 $142 $104 $143 reversed $65 $-1 #
coedge $-1 -1 $-1 $144 $67 $142 $145 reversed $42 $-1 #
coedge $-1 -1 $-1 $67 $144 $107 $146 forward $42 $-1 #
edge $-1 -1 $-1 $147 -0.7499999999999993339 $110 2.250000000000000444 $67 $148 forward @7 unknown #
coedge $-1 -1 $-1 $69 $68 $100 $143 forward $27 $-1 #
coedge $-1 -1 $-1 $149 $150 $68 $106 reversed $151 $-1 #
edge $-1 -1 $-1 $111 -2.249999999999999112 $152 0.749999999999999778 $105 $153 forward @7 unknown #
coedge $-1 -1 $-1 $154 $70 $102 $146 reversed $109 $-1 #
coedge $-1 -1 $-1 $70 $155 $149 $156 reversed $109 $-1 #
loop $-1 -1 $-1 $-1 $70 $157 #
vertex $-1 -1 $-1 $71 $158 #
vertex $-1 -1 $-1 $71 $159 #
straight-curve $-1 -1 $-1 -49.99999999999995737 17.5 -127.5 -1.884110950420530693e-15 7.071067811865475505 7.071067811865475505 I I #
coedge $-1 -1 $-1 $72 $160 $77 $118 forward $114 $-1 #
loop $-1 -1 $-1 $-1 $113 $161 #
straight-curve $-1 -1 $-1 0 50 -17.50000000000000355 0 0 -10 I I #
point $-1 -1 $-1 0 50 -49.99999999999999289 #
coedge $-1 -1 $-1 $83 $77 $162 $163 reversed $78 $-1 #
edge $-1 -1 $-1 $164 0 $80 5 $113 $165 forward @7 unknown #
face $166 -1 $-1 $167 $78 $5 $-1 $168 forward single #
point $-1 -1 $-1 0 50 -20.00000000000000711 #
coedge $-1 -1 $-1 $162 $89 $85 $122 forward $130 $-1 #
edge $169 -1 $-1 $92 0 $124 2.999999999999997335 $121 $170 forward @7 unknown #
DXID-attrib $-1 -1 $-1 $-1 $86 @10 ASM ENTITY @36 02fb2175-150f-4b47-809d-e4cb7124a29a #
vertex $-1 -1 $-1 $163 $171 #
straight-curve $-1 -1 $-1 64.99999999999998579 0 -20 0 10 0 I I #
DXID-attrib $-1 -1 $-1 $-1 $87 @10 ASM ENTITY @36 72bcd633-2b24-4c9b-950a-0f22ef305aa8 #
face $172 -1 $-1 $173 $174 $5 $-1 $175 forward single #
plane-surface $-1 -1 $-1 64.99999999999998579 0 -20 1 0 5.921189464667507137e-16 5.921189464667507334e-15 0 -10 forward_v I I I I #
coedge $-1 -1 $-1 $89 $176 $135 $177 reversed $130 $-1 #
loop $-1 -1 $-1 $-1 $178 $179 #
DXID-attrib $-1 -1 $-1 $-1 $90 @10 ASM ENTITY @36 67760bcf-bc81-40af-a9bd-62e11999c0eb #
vertex $-1 -1 $-1 $90 $180 #
straight-curve $-1 -1 $-1 -135 0 -50.00000000000002842 10 0 2.664535259100376091e-15 F 11.5 F 20 #
point $-1 -1 $-1 65 0 -49.99999999999997158 #
coedge $-1 -1 $-1 $181 $94 $129 $177 forward $114 $-1 #
straight-curve $-1 -1 $-1 0 0 -49.99999999999999289 0 -10 0 I I #
DXID-attrib $-1 -1 $-1 $-1 $97 @10 ASM ENTITY @36 bcbed5f1-8c72-431f-8781-24c9fcc834d5 #
face $182 -1 $-1 $183 $184 $5 $-1 $185 forward single #
loop $-1 -1 $-1 $-1 $186 $97 #
coedge $-1 -1 $-1 $187 $188 $189 $190 forward $98 $-1 #
coedge $-1 -1 $-1 $191 $100 $150 $192 reversed $65 $-1 #
coedge $-1 -1 $-1 $100 $193 $101 $145 forward $65 $-1 #
edge $-1 -1 $-1 $152 -1.590990257669732344 $147 4.065863991822648238 $100 $194 forward @7 unknown #
coedge $-1 -1 $-1 $102 $101 $195 $196 reversed $42 $-1 #
edge $197 -1 $-1 $198 0 $147 1 $142 $199 forward @7 unknown #
edge $200 -1 $-1 $201 0 $110 1 $102 $202 forward @7 unknown #
vertex $-1 -1 $-1 $143 $203 #
straight-curve $-1 -1 $-1 -27.49999999999995026 10 -135 -10 0 -5.921189464667501023e-15 F -13.15000099999999961 F 14.65000100000000316 #
coedge $-1 -1 $-1 $204 $105 $108 $156 forward $151 $-1 #
coedge $-1 -1 $-1 $105 $204 $141 $192 forward $151 $-1 #
loop $-1 -1 $-1 $-1 $105 $205 #
vertex $-1 -1 $-1 $106 $206 #
straight-curve $-1 -1 $-1 -27.49999999999997158 50 -95 10 0 5.921189464667501023e-15 F -14.65000100000000316 F 13.15000099999999961 #
coedge $-1 -1 $-1 $155 $107 $207 $208 reversed $109 $-1 #
coedge $-1 -1 $-1 $108 $154 $209 $210 reversed $109 $-1 #
edge $211 -1 $-1 $111 -16 $212 -13.49999999999999822 $108 $213 forward @7 unknown #
face $214 -1 $-1 $87 $109 $5 $-1 $215 forward single #
point $-1 -1 $-1 -49.99999999999995737 10 -135.0000000000000284 #
point $-1 -1 $-1 -49.99999999999996447 50 -95.00000000000001421 #
coedge $-1 -1 $-1 $113 $216 $178 $217 forward $114 $-1 #
face $218 -1 $-1 $219 $114 $5 $-1 $220 forward single #
coedge $-1 -1 $-1 $178 $121 $117 $163 forward $130 $-1 #
edge $221 -1 $-1 $124 -0 $164 6.499999999999998224 $162 $222 forward @7 unknown #
vertex $-1 -1 $-1 $118 $223 #
straight-curve $-1 -1 $-1 0 0 -20.00000000000000711 0 10 0 I I #
DXID-attrib $-1 -1 $-1 $-1 $119 @10 ASM ENTITY @36 43c07e2b-40fd-4ed1-b328-f64e535e616c #
face $224 -1 $-1 $205 $225 $5 $-1 $14 forward single #
plane-surface $-1 -1 $-1 -20.00000000000001776 0 -20.00000000000001421 -1.332267629550188046e-16 0 1 10 0 1.332267629550188046e-15 forward_v I I I I #
DXID-attrib $-1 -1 $-1 $-1 $122 @10 ASM ENTITY @36 06b1066e-159c-4bd6-9c4c-2f0d9e7b0d71 #
straight-curve $-1 -1 $-1 65 0 -49.99999999999997158 -5.921189464667507334e-15 0 10 F 0 F 2.999999999999997335 #
point $-1 -1 $-1 64.99999999999998579 0 -20 #
DXID-attrib $-1 -1 $-1 $-1 $127 @10 ASM ENTITY @36 78bd7476-8277-40db-819a-d9534a076ec9 #
face $226 -1 $-1 $161 $227 $5 $-1 $228 forward single #
loop $-1 -1 $-1 $-1 $229 $127 #
plane-surface $-1 -1 $-1 -20.00000000000004263 0 65 1 0 4.329869796038110902e-16 4.329869796038110508e-15 0 -10 forward_v I I I I #
coedge $-1 -1 $-1 $129 $230 $231 $232 reversed $130 $-1 #
edge $233 -1 $-1 $132 4.999999999999999112 $234 7 $135 $235 forward @7 unknown #
coedge $-1 -1 $-1 $236 $162 $160 $217 reversed $130 $-1 #
face $237 -1 $-1 $-1 $130 $5 $-1 $238 reversed single #
point $-1 -1 $-1 0 0 -49.99999999999999289 #
coedge $-1 -1 $-1 $239 $135 $240 $241 forward $114 $-1 #
DXID-attrib $-1 -1 $-1 $-1 $138 @10 ASM ENTITY @36 05344f1c-83a0-4304-b2b0-8e5154d07819 #
face $242 -1 $-1 $243 $244 $5 $-1 $245 forward single #
loop $-1 -1 $-1 $-1 $189 $138 #
plane-surface $-1 -1 $-1 -135.0000000000000284 0 -20.00000000000002842 -1.332267629550188046e-16 0 1 10 0 1.332267629550188046e-15 forward_v I I I I #
coedge $-1 -1 $-1 $246 $247 $187 $248 reversed $139 $-1 #
coedge $-1 -1 $-1 $249 $140 $186 $248 forward $98 $-1 #
coedge $-1 -1 $-1 $140 $249 $250 $251 forward $98 $-1 #
coedge $-1 -1 $-1 $252 $253 $140 $190 reversed $184 $-1 #
edge $-1 -1 $-1 $254 -1.060660171779822747 $255 4.596194077712558723 $189 $256 forward @7 unknown #
coedge $-1 -1 $-1 $193 $141 $257 $258 reversed $65 $-1 #
edge $259 -1 $-1 $260 -6.5 $152 -4 $141 $261 forward @7 unknown #
coedge $-1 -1 $-1 $142 $191 $230 $262 reversed $65 $-1 #
straight-curve $-1 -1 $-1 -19.99999999999997158 38.74999999999999289 -106.25 3.061680294433361637e-15 -7.071067811865475505 -7.071067811865475505 I I #
coedge $-1 -1 $-1 $230 $207 $144 $196 forward $130 $-1 #
edge $263 -1 $-1 $201 0 $198 3 $195 $264 forward @7 unknown #
DXID-attrib $-1 -1 $-1 $-1 $145 @10 ASM ENTITY @36 77a86072-f44a-460a-858b-44b40cfa7eed #
vertex $-1 -1 $-1 $145 $265 #
straight-curve $-1 -1 $-1 -19.99999999999995737 0 -135 0 10 0 I I #
DXID-attrib $-1 -1 $-1 $-1 $146 @10 ASM ENTITY @36 b9d93576-cfd2-40d7-90e3-ccf45c3e63e6 #
vertex $-1 -1 $-1 $196 $266 #
straight-curve $-1 -1 $-1 -49.99999999999995737 0 -135.0000000000000284 0 10 0 I I #
point $-1 -1 $-1 -19.99999999999995737 10 -135 #
coedge $-1 -1 $-1 $150 $149 $267 $268 reversed $151 $-1 #
face $269 -1 $-1 $270 $151 $5 $-1 $14 forward single #
point $-1 -1 $-1 -19.99999999999997513 50 -95 #
coedge $-1 -1 $-1 $195 $271 $154 $208 forward $130 $-1 #
edge $272 -1 $-1 $273 13.49999999999999822 $201 20 $207 $274 forward @7 unknown #
coedge $-1 -1 $-1 $275 $267 $155 $210 forward $276 $-1 #
edge $-1 -1 $-1 $212 -5 $273 0 $209 $277 forward @7 unknown #
DXID-attrib $-1 -1 $-1 $-1 $156 @10 ASM ENTITY @36 069b5e4c-3e25-43c6-b3b6-a07e2cecbf13 #
vertex $-1 -1 $-1 $156 $278 #
straight-curve $-1 -1 $-1 -50.00000000000000711 50 64.99999999999998579 -2.664535259100376091e-15 0 10 I I #
DXID-attrib $-1 -1 $-1 $-1 $157 @10 ASM ENTITY @36 3cc65cc6-062b-4814-ac2d-1a4daccfa04f #
plane-surface $-1 -1 $-1 -49.99999999999995737 0 -135.0000000000000284 -1 0 -2.664535259100376091e-16 -2.664535259100376091e-15 0 10 forward_v I I I I #
coedge $-1 -1 $-1 $160 $239 $279 $280 reversed $114 $-1 #
edge $281 -1 $-1 $282 -0 $164 2.000000000000000888 $160 $235 forward @7 unknown #
DXID-attrib $-1 -1 $-1 $-1 $161 @10 ASM ENTITY @36 7947a1c5-3268-416d-8f38-6d75be926a81 #
face $283 -1 $-1 $284 $276 $5 $-1 $285 forward single #
plane-surface $-1 -1 $-1 0 0 0 1 0 0 -0 -0 -10 forward_v I I I I #
DXID-attrib $-1 -1 $-1 $-1 $163 @10 ASM ENTITY @36 5860aad5-e985-4404-b450-01af2c87191a #
straight-curve $-1 -1 $-1 64.99999999999998579 0 -20 -10 -0 -1.332267629550188046e-15 F -0 F 8.5 #
point $-1 -1 $-1 0 0 -20.00000000000000711 #
DXID-attrib $-1 -1 $-1 $-1 $167 @10 ASM ENTITY @36 92cc1261-917d-42f7-a70c-aab1dd7565ad #
loop $-1 -1 $-1 $-1 $286 $167 #
DXID-attrib $-1 -1 $-1 $-1 $173 @10 ASM ENTITY @36 c258467e-3827-4966-a2da-e6a7dbeb1292 #
loop $-1 -1 $-1 $-1 $250 $173 #
plane-surface $-1 -1 $-1 -135 0 -50.00000000000002842 -1 0 -5.92118946466750122e-16 -5.921189464667501023e-15 0 10 forward_v I I I I #
coedge $-1 -1 $-1 $287 $288 $289 $290 reversed $174 $-1 #
coedge $-1 -1 $-1 $176 $195 $193 $262 forward $130 $-1 #
coedge $-1 -1 $-1 $257 $240 $176 $232 forward $276 $-1 #
edge $291 -1 $-1 $234 -0 $292 1.999999999999998668 $231 $293 forward @7 unknown #
DXID-attrib $-1 -1 $-1 $-1 $177 @10 ASM ENTITY @36 0432bd3b-ab01-404a-8abf-247ba39c6ed6 #
vertex $-1 -1 $-1 $177 $294 #
straight-curve $-1 -1 $-1 0 0 0 -0 -0 -10 F -0 F 7 #
coedge $-1 -1 $-1 $295 $178 $296 $297 reversed $130 $-1 #
DXID-attrib $-1 -1 $-1 $-1 $179 @10 ASM ENTITY @36 6727f1d4-b6b1-4e66-aa8f-a85e10449c0b #
plane-surface $-1 -1 $-1 -35 0 -35 0 1 0 0 0 10 forward_v I I I I #
coedge $-1 -1 $-1 $216 $181 $298 $299 reversed $114 $-1 #
coedge $-1 -1 $-1 $231 $300 $181 $241 reversed $276 $-1 #
edge $301 -1 $-1 $234 0 $302 35 $240 $303 forward @7 unknown #
DXID-attrib $-1 -1 $-1 $-1 $183 @10 ASM ENTITY @36 76bc8c69-f3bd-47b1-9c28-96bab4dc453e #
face $304 -1 $-1 $305 $306 $5 $-1 $307 forward single #
loop $-1 -1 $-1 $-1 $289 $183 #
plane-surface $-1 -1 $-1 -42.5 30 44.99999999999998579 0 0.7071067811865474617 0.7071067811865474617 10 0 0 forward_v I I I I #
coedge $-1 -1 $-1 $308 $186 $253 $309 forward $139 $-1 #
coedge $-1 -1 $-1 $186 $308 $310 $311 forward $139 $-1 #
edge $-1 -1 $-1 $255 -2.249999999999999556 $312 0.75 $186 $313 forward @7 unknown #
coedge $-1 -1 $-1 $188 $187 $314 $315 forward $98 $-1 #
coedge $-1 -1 $-1 $316 $317 $188 $251 reversed $227 $-1 #
edge $-1 -1 $-1 $318 -0.7499999999999982236 $254 2.250000000000001776 $250 $319 forward @7 unknown #
coedge $-1 -1 $-1 $320 $189 $317 $321 reversed $184 $-1 #
coedge $-1 -1 $-1 $189 $322 $246 $309 reversed $184 $-1 #
vertex $-1 -1 $-1 $190 $323 #
vertex $-1 -1 $-1 $190 $324 #
straight-curve $-1 -1 $-1 -127.5 17.5 -20.00000000000002842 7.071067811865475505 7.071067811865475505 9.420554752102653466e-16 I I #
coedge $-1 -1 $-1 $267 $231 $191 $258 forward $276 $-1 #
edge $-1 -1 $-1 $292 0 $260 5 $257 $325 forward @7 unknown #
DXID-attrib $-1 -1 $-1 $-1 $192 @10 ASM ENTITY @36 b56185f5-1b41-4e2f-afac-bd232ba31cb6 #
vertex $-1 -1 $-1 $192 $326 #
straight-curve $-1 -1 $-1 -19.99999999999995737 50 -135 4.329869796038110508e-15 0 -10 I I #
edge $327 -1 $-1 $198 0 $292 6.5 $230 $328 forward @7 unknown #
DXID-attrib $-1 -1 $-1 $-1 $196 @10 ASM ENTITY @36 9bd12709-efcf-47f7-8f79-ccff7fe196e1 #
straight-curve $-1 -1 $-1 -49.99999999999995737 0 -135.0000000000000284 10 0 5.921189464667501023e-15 F 0 F 3 #
point $-1 -1 $-1 -19.99999999999995737 0 -135 #
point $-1 -1 $-1 -49.99999999999995737 0 -135.0000000000000284 #
coedge $-1 -1 $-1 $209 $257 $204 $268 forward $276 $-1 #
edge $-1 -1 $-1 $260 0.2499999999999986677 $212 3.249999999999997335 $267 $329 forward @7 unknown #
DXID-attrib $-1 -1 $-1 $-1 $205 @10 ASM ENTITY @36 9ff17558-e854-485a-baf3-5de4b717be74 #
face $330 -1 $-1 $157 $331 $5 $-1 $332 forward single #
coedge $-1 -1 $-1 $207 $333 $275 $334 reversed $130 $-1 #
DXID-attrib $-1 -1 $-1 $-1 $208 @10 ASM ENTITY @36 d9c3c6a3-a612-48d2-86a1-253a22a26acf #
vertex $-1 -1 $-1 $208 $335 #
straight-curve $-1 -1 $-1 -50.00000000000000711 0 64.99999999999998579 2.664535259100376091e-15 0 -10 F 11.5 F 20 #
coedge $-1 -1 $-1 $336 $209 $271 $334 forward $276 $-1 #
loop $-1 -1 $-1 $-1 $257 $219 #
straight-curve $-1 -1 $-1 -49.99999999999997158 0 -70 0 -10 0 I I #
point $-1 -1 $-1 -49.99999999999997158 50 -70 #
coedge $-1 -1 $-1 $337 $296 $216 $280 forward $338 $-1 #
edge $339 -1 $-1 $282 0 $340 35 $279 $341 forward @7 unknown #
DXID-attrib $-1 -1 $-1 $-1 $217 @10 ASM ENTITY @36 23711c60-2c97-4b7e-a2e6-e770ee51d5fb #
vertex $-1 -1 $-1 $280 $342 #
DXID-attrib $-1 -1 $-1 $-1 $219 @10 ASM ENTITY @36 a2b3cf39-f6d2-4e68-9c42-f2b17a18274e #
face $343 -1 $-1 $344 $345 $5 $-1 $346 forward single #
plane-surface $-1 -1 $-1 0 0 -70 0 0 -1 -10 -0 -0 forward_v I I I I #
coedge $-1 -1 $-1 $347 $348 $349 $350 reversed $225 $-1 #
coedge $-1 -1 $-1 $351 $229 $352 $353 reversed $174 $-1 #
coedge $-1 -1 $-1 $229 $354 $347 $355 reversed $174 $-1 #
coedge $-1 -1 $-1 $349 $356 $229 $290 forward $244 $-1 #
edge $-1 -1 $-1 $357 -1.060660171779820971 $358 4.5961940777125605 $229 $359 forward @7 unknown #
DXID-attrib $-1 -1 $-1 $-1 $232 @10 ASM ENTITY @36 5005a0f0-4fc1-471b-9d33-44df8f8d4efc #
vertex $-1 -1 $-1 $258 $360 #
straight-curve $-1 -1 $-1 0 0 -70 -10 -0 -0 F -0 F 7 #
point $-1 -1 $-1 0 0 -70 #
coedge $-1 -1 $-1 $361 $236 $351 $362 forward $130 $-1 #
coedge $-1 -1 $-1 $279 $363 $236 $297 forward $338 $-1 #
edge $364 -1 $-1 $365 4.999999999999998224 $282 7 $296 $366 forward @7 unknown #
coedge $-1 -1 $-1 $367 $368 $239 $299 forward $369 $-1 #
edge $370 -1 $-1 $340 -0 $302 7 $239 $371 forward @7 unknown #
coedge $-1 -1 $-1 $240 $336 $367 $372 reversed $276 $-1 #
DXID-attrib $-1 -1 $-1 $-1 $241 @10 ASM ENTITY @36 ac609915-2537-43b9-8523-78eb54e372aa #
vertex $-1 -1 $-1 $241 $373 #
straight-curve $-1 -1 $-1 0 0 -70 0 10 0 I I #
DXID-attrib $-1 -1 $-1 $-1 $243 @10 ASM ENTITY @36 e3979cbe-c95c-4890-8174-7c1ff6f50099 #
face $374 -1 $-1 $119 $375 $5 $-1 $376 forward single #
loop $-1 -1 $-1 $-1 $377 $243 #
plane-surface $-1 -1 $-1 -50.00000000000000711 0 64.99999999999998579 0 0 1 10 0 0 forward_v I I I I #
coedge $-1 -1 $-1 $247 $246 $378 $379 reversed $139 $-1 #
edge $380 -1 $-1 $255 -16 $381 -13.49999999999999822 $253 $382 forward @7 unknown #
coedge $-1 -1 $-1 $383 $314 $247 $311 reversed $331 $-1 #
edge $384 -1 $-1 $385 -6.5 $312 -4 $310 $386 forward @7 unknown #
vertex $-1 -1 $-1 $248 $387 #
straight-curve $-1 -1 $-1 -95 50 -42.50000000000001421 5.921189464667501023e-15 0 -10 F -14.65000099999999961 F 13.15000100000000494 #
coedge $-1 -1 $-1 $310 $388 $249 $315 reversed $331 $-1 #
edge $-1 -1 $-1 $312 -1.590990257669732122 $318 4.065863991822648238 $314 $389 forward @7 unknown #
coedge $-1 -1 $-1 $390 $250 $388 $391 reversed $227 $-1 #
coedge $-1 -1 $-1 $250 $390 $252 $321 forward $227 $-1 #
vertex $-1 -1 $-1 $315 $392 #
straight-curve $-1 -1 $-1 -135 10 -42.50000000000004263 -5.921189464667501023e-15 0 10 F -13.15000100000000494 F 14.65000099999999961 #
coedge $-1 -1 $-1 $322 $252 $393 $394 reversed $184 $-1 #
edge $395 -1 $-1 $396 0 $254 1 $317 $397 forward @7 unknown #
coedge $-1 -1 $-1 $253 $320 $398 $399 reversed $184 $-1 #
point $-1 -1 $-1 -135.0000000000000284 10 -20.00000000000002842 #
point $-1 -1 $-1 -95.00000000000001421 50 -20.00000000000002132 #
straight-curve $-1 -1 $-1 -19.99999999999998579 0 -70 0 10 0 I I #
point $-1 -1 $-1 -19.99999999999998579 50 -70 #
DXID-attrib $-1 -1 $-1 $-1 $262 @10 ASM ENTITY @36 62e6668a-9eea-4df9-a38d-4bf7ec433ca4 #
straight-curve $-1 -1 $-1 -19.99999999999995737 0 -135 -4.329869796038110508e-15 0 10 F 0 F 8.5 #
straight-curve $-1 -1 $-1 -17.5 50 -70 -10 0 0 I I #
DXID-attrib $-1 -1 $-1 $-1 $270 @10 ASM ENTITY @36 a7261e9e-ca08-44e5-80f6-d4affe4ece8d #
loop $-1 -1 $-1 $-1 $314 $270 #
plane-surface $-1 -1 $-1 -49.99999999999998579 0 -50 2.664535259100376091e-16 0 -1 -10 -0 -2.664535259100376091e-15 forward_v I I I I #
coedge $-1 -1 $-1 $271 $400 $401 $402 reversed $130 $-1 #
edge $403 -1 $-1 $273 4.999999999999997335 $404 7 $275 $293 forward @7 unknown #
point $-1 -1 $-1 -49.99999999999997158 0 -70 #
coedge $-1 -1 $-1 $300 $275 $405 $406 forward $276 $-1 #
coedge $-1 -1 $-1 $407 $279 $368 $408 reversed $338 $-1 #
loop $-1 -1 $-1 $-1 $363 $409 #
DXID-attrib $-1 -1 $-1 $-1 $280 @10 ASM ENTITY @36 48aea2fa-2986-4739-b83a-c8433c2f4367 #
vertex $-1 -1 $-1 $299 $410 #
straight-curve $-1 -1 $-1 0 0 0 0 10 0 I I #
point $-1 -1 $-1 0 0 0 #
DXID-attrib $-1 -1 $-1 $-1 $284 @10 ASM ENTITY @36 fe28d626-b3be-4d2f-99b7-44d34d39c6aa #
face $411 -1 $-1 $412 $413 $5 $-1 $414 forward single #
loop $-1 -1 $-1 $-1 $415 $284 #
plane-surface $-1 -1 $-1 -7.500000000000016875 347.5 -47.50000000000001421 -0.7071067811865473507 0.7071067811865476838 2.51214793389403859e-16 3.552713678800499746e-15 0 10 forward_v I I I I #
coedge $-1 -1 $-1 $416 $286 $288 $355 forward $225 $-1 #
coedge $-1 -1 $-1 $286 $416 $417 $418 forward $225 $-1 #
coedge $-1 -1 $-1 $419 $289 $286 $350 forward $244 $-1 #
edge $-1 -1 $-1 $358 -2.249999999999997335 $420 0.75 $286 $421 forward @7 unknown #
coedge $-1 -1 $-1 $354 $287 $295 $362 reversed $174 $-1 #
coedge $-1 -1 $-1 $377 $422 $287 $353 forward $306 $-1 #
edge $423 -1 $-1 $424 0 $357 1 $352 $425 forward @7 unknown #
coedge $-1 -1 $-1 $288 $351 $363 $426 reversed $174 $-1 #
edge $427 -1 $-1 $358 -15.99999999999999822 $428 -13.5 $288 $429 forward @7 unknown #
coedge $-1 -1 $-1 $289 $419 $377 $430 forward $244 $-1 #
vertex $-1 -1 $-1 $290 $431 #
vertex $-1 -1 $-1 $290 $432 #
straight-curve $-1 -1 $-1 -20.00000000000004263 17.49999999999999289 57.49999999999998579 3.061680294433361637e-15 7.071067811865475505 -7.071067811865475505 I I #
point $-1 -1 $-1 -19.99999999999998579 0 -70 #
coedge $-1 -1 $-1 $433 $295 $422 $434 forward $130 $-1 #
edge $435 -1 $-1 $365 13.5 $424 20 $295 $436 forward @7 unknown #
coedge $-1 -1 $-1 $296 $437 $354 $426 forward $338 $-1 #
DXID-attrib $-1 -1 $-1 $-1 $297 @10 ASM ENTITY @36 54b8eddc-2873-462f-9885-743ea853d574 #
vertex $-1 -1 $-1 $362 $438 #
straight-curve $-1 -1 $-1 -70 0 0 10 0 0 F 0 F 7 #
coedge $-1 -1 $-1 $439 $298 $300 $372 forward $369 $-1 #
coedge $-1 -1 $-1 $298 $439 $337 $408 forward $369 $-1 #
loop $-1 -1 $-1 $440 $367 $441 #
DXID-attrib $-1 -1 $-1 $-1 $299 @10 ASM ENTITY @36 c67978f3-9d55-4cf2-9dcb-835190cb8518 #
straight-curve $-1 -1 $-1 0 350 0 -0 -0 -10 I I #
edge $442 -1 $-1 $302 -0 $443 7 $300 $444 forward @7 unknown #
point $-1 -1 $-1 0 350 -70 #
DXID-attrib $-1 -1 $-1 $-1 $305 @10 ASM ENTITY @36 7b1014d0-38e4-4d43-b2c0-396bf2904e2c #
loop $-1 -1 $-1 $-1 $445 $305 #
plane-surface $-1 -1 $-1 -49.99999999999998579 0 -20.00000000000001776 -1 0 -2.664535259100376091e-16 -2.664535259100376091e-15 0 10 forward_v I I I I #
coedge $-1 -1 $-1 $446 $352 $356 $430 reversed $306 $-1 #
coedge $-1 -1 $-1 $398 $447 $308 $379 forward $448 $-1 #
edge $-1 -1 $-1 $385 0.2499999999999991118 $381 3.249999999999998224 $378 $449 forward @7 unknown #
DXID-attrib $-1 -1 $-1 $-1 $309 @10 ASM ENTITY @36 3177bb17-7f88-46b4-9cc9-bbd954745ec4 #
vertex $-1 -1 $-1 $309 $450 #
straight-curve $-1 -1 $-1 64.99999999999998579 50 -20 10 0 1.332267629550188046e-15 I I #
coedge $-1 -1 $-1 $451 $310 $447 $452 reversed $331 $-1 #
DXID-attrib $-1 -1 $-1 $-1 $311 @10 ASM ENTITY @36 18d576f5-3fa0-4d1b-b2e2-13b401980fda #
vertex $-1 -1 $-1 $379 $453 #
straight-curve $-1 -1 $-1 -135 50 -50.00000000000002842 -10 -0 -2.664535259100376091e-15 I I #
point $-1 -1 $-1 -95 50 -50.00000000000001421 #
coedge $-1 -1 $-1 $314 $451 $316 $391 forward $331 $-1 #
straight-curve $-1 -1 $-1 -106.25 38.75 -50.00000000000001421 -7.071067811865475505 -7.071067811865475505 -1.884110950420530693e-15 I I #
coedge $-1 -1 $-1 $317 $316 $454 $455 reversed $227 $-1 #
edge $456 -1 $-1 $457 0 $318 1 $388 $458 forward @7 unknown #
point $-1 -1 $-1 -135 10 -50.00000000000002842 #
coedge $-1 -1 $-1 $454 $459 $320 $394 forward $130 $-1 #
edge $460 -1 $-1 $461 13.49999999999999822 $396 20 $393 $462 forward @7 unknown #
DXID-attrib $-1 -1 $-1 $-1 $321 @10 ASM ENTITY @36 647eb7fb-8ae8-4701-b462-0c5dbf3277b9 #
vertex $-1 -1 $-1 $321 $463 #
straight-curve $-1 -1 $-1 -135.0000000000000284 0 -20.00000000000002842 0 10 0 I I #
coedge $-1 -1 $-1 $464 $378 $322 $399 forward $448 $-1 #
edge $-1 -1 $-1 $381 -5 $461 0 $398 $465 forward @7 unknown #
coedge $-1 -1 $-1 $333 $454 $451 $466 forward $130 $-1 #
coedge $-1 -1 $-1 $447 $405 $333 $402 forward $448 $-1 #
edge $467 -1 $-1 $404 0 $468 1.999999999999999112 $401 $469 forward @7 unknown #
DXID-attrib $-1 -1 $-1 $-1 $334 @10 ASM ENTITY @36 dac4ebc7-7b52-4496-b072-508f49bc2efb #
vertex $-1 -1 $-1 $334 $470 #
coedge $-1 -1 $-1 $401 $471 $336 $406 reversed $448 $-1 #
edge $472 -1 $-1 $404 0 $443 35 $336 $473 forward @7 unknown #
coedge $-1 -1 $-1 $474 $337 $475 $476 reversed $338 $-1 #
edge $477 -1 $-1 $478 0 $340 7 $337 $479 forward @7 unknown #
face $480 -1 $-1 $481 $338 $5 $-1 $482 forward single #
point $-1 -1 $-1 0 350 0 #
DXID-attrib $-1 -1 $-1 $-1 $344 @10 ASM ENTITY @36 cdd7e95c-bf35-4759-a3ce-9ab193f28793 #
face $483 -1 $-1 $484 $485 $5 $-1 $486 forward single #
loop $-1 -1 $-1 $-1 $487 $344 #
plane-surface $-1 -1 $-1 -62.50000000000001421 347.5 -22.5 0.7071067811865474617 0.7071067811865474617 0 0 0 -10 forward_v I I I I #
coedge $-1 -1 $-1 $488 $489 $490 $491 forward $345 $-1 #
coedge $-1 -1 $-1 $348 $347 $437 $492 reversed $225 $-1 #
coedge $-1 -1 $-1 $493 $445 $348 $418 reversed $375 $-1 #
edge $494 -1 $-1 $495 -6.499999999999998224 $420 -4 $417 $496 forward @7 unknown #
coedge $-1 -1 $-1 $356 $349 $445 $497 forward $244 $-1 #
vertex $-1 -1 $-1 $350 $498 #
straight-curve $-1 -1 $-1 -42.5 50 24.99999999999998224 -10 0 0 F -14.65000099999999605 F 13.15000099999999961 #
coedge $-1 -1 $-1 $352 $446 $361 $434 reversed $306 $-1 #
DXID-attrib $-1 -1 $-1 $-1 $353 @10 ASM ENTITY @36 7a000364-04dd-4025-ac85-50450bc90315 #
vertex $-1 -1 $-1 $434 $499 #
straight-curve $-1 -1 $-1 -20.00000000000004263 0 64.99999999999998579 0 10 0 I I #
edge $-1 -1 $-1 $428 -5 $365 0 $363 $500 forward @7 unknown #
DXID-attrib $-1 -1 $-1 $-1 $355 @10 ASM ENTITY @36 b4782913-9467-486e-80f3-ea84557ad691 #
vertex $-1 -1 $-1 $355 $501 #
straight-curve $-1 -1 $-1 -19.99999999999995737 50 -135 4.329869796038110508e-15 0 -10 I I #
edge $-1 -1 $-1 $502 -0.7500000000000008882 $357 2.249999999999995559 $377 $503 forward @7 unknown #
point $-1 -1 $-1 -20.00000000000004263 10 64.99999999999998579 #
point $-1 -1 $-1 -20.00000000000002842 50 24.99999999999998224 #
coedge $-1 -1 $-1 $504 $361 $505 $506 forward $130 $-1 #
edge $507 -1 $-1 $424 0 $508 2.999999999999996447 $361 $509 forward @7 unknown #
DXID-attrib $-1 -1 $-1 $-1 $362 @10 ASM ENTITY @36 08d09741-e12d-4d06-b6f5-5bfd4e30fac1 #
straight-curve $-1 -1 $-1 -19.99999999999995737 0 -135 -4.329869796038110508e-15 0 10 F 11.5 F 20 #
coedge $-1 -1 $-1 $363 $510 $416 $492 forward $338 $-1 #
point $-1 -1 $-1 -20.00000000000001776 0 0 #
coedge $-1 -1 $-1 $368 $367 $471 $511 forward $369 $-1 #
loop $-1 -1 $-1 $-1 $512 $441 #
face $513 -1 $-1 $514 $369 $5 $-1 $515 forward single #
DXID-attrib $-1 -1 $-1 $-1 $372 @10 ASM ENTITY @36 e1a6d5d5-d09c-4a2e-a7e4-4520d594b800 #
vertex $-1 -1 $-1 $406 $516 #
straight-curve $-1 -1 $-1 0 350 -70 -10 -0 -0 I I #
coedge $-1 -1 $-1 $417 $517 $419 $497 reversed $375 $-1 #
coedge $-1 -1 $-1 $422 $377 $517 $518 reversed $306 $-1 #
coedge $-1 -1 $-1 $378 $401 $383 $452 forward $448 $-1 #
loop $-1 -1 $-1 $-1 $398 $481 #
straight-curve $-1 -1 $-1 -70 50 -52.5 0 0 10 I I #
point $-1 -1 $-1 -70 50 -20.00000000000001776 #
coedge $-1 -1 $-1 $388 $383 $400 $466 reversed $331 $-1 #
edge $-1 -1 $-1 $468 0 $385 5 $447 $519 forward @7 unknown #
point $-1 -1 $-1 -70 50 -50.00000000000000711 #
coedge $-1 -1 $-1 $400 $393 $390 $455 forward $130 $-1 #
edge $520 -1 $-1 $396 0 $457 3 $454 $521 forward @7 unknown #
DXID-attrib $-1 -1 $-1 $-1 $391 @10 ASM ENTITY @36 1df84e0d-1fc9-4833-bcf4-541fad17ae54 #
vertex $-1 -1 $-1 $466 $522 #
straight-curve $-1 -1 $-1 -135 0 -50.00000000000002842 0 10 0 I I #
coedge $-1 -1 $-1 $393 $504 $464 $523 reversed $130 $-1 #
DXID-attrib $-1 -1 $-1 $-1 $394 @10 ASM ENTITY @36 83beb422-0405-4faa-b7ca-6bf1f5430652 #
vertex $-1 -1 $-1 $394 $524 #
straight-curve $-1 -1 $-1 64.99999999999998579 0 -20 -10 -0 -1.332267629550188046e-15 F 11.49999999999999645 F 20 #
point $-1 -1 $-1 -135.0000000000000284 0 -20.00000000000002842 #
coedge $-1 -1 $-1 $475 $398 $459 $523 forward $448 $-1 #
straight-curve $-1 -1 $-1 -70 0 -20.00000000000002132 0 -10 0 I I #
edge $525 -1 $-1 $457 0 $468 6.5 $400 $526 forward @7 unknown #
DXID-attrib $-1 -1 $-1 $-1 $402 @10 ASM ENTITY @36 b01f2173-2597-4a85-993d-8bfd3dfbb786 #
vertex $-1 -1 $-1 $452 $527 #
straight-curve $-1 -1 $-1 -70 0 -70 0 0 10 F 0 F 7 #
point $-1 -1 $-1 -70 0 -70 #
coedge $-1 -1 $-1 $405 $475 $439 $511 reversed $448 $-1 #
DXID-attrib $-1 -1 $-1 $-1 $406 @10 ASM ENTITY @36 64594ca9-ca3f-43f4-b619-f6df4e8ba9ff #
straight-curve $-1 -1 $-1 -70 0 -70 0 10 0 I I #
coedge $-1 -1 $-1 $510 $407 $504 $528 forward $338 $-1 #
coedge $-1 -1 $-1 $471 $464 $407 $476 forward $448 $-1 #
edge $529 -1 $-1 $530 0 $478 35 $475 $531 forward @7 unknown #
DXID-attrib $-1 -1 $-1 $-1 $408 @10 ASM ENTITY @36 6cb0fa29-254d-4e8a-8c2c-97ee71c67453 #
vertex $-1 -1 $-1 $511 $532 #
straight-curve $-1 -1 $-1 -70 350 0 10 0 0 I I #
DXID-attrib $-1 -1 $-1 $-1 $409 @10 ASM ENTITY @36 df85e990-72b8-4fe5-b1cf-6a4b32ea3e3c #
face $533 -1 $-1 $179 $448 $5 $-1 $534 forward single #
plane-surface $-1 -1 $-1 -70 0 0 0 0 1 10 0 0 forward_v I I I I #
DXID-attrib $-1 -1 $-1 $-1 $412 @10 ASM ENTITY @36 a7958108-aceb-4a78-9dc5-039b200e0fee #
face $535 -1 $-1 $536 $537 $5 $-1 $538 forward single #
loop $-1 -1 $-1 $-1 $539 $412 #
plane-surface $-1 -1 $-1 -22.5 347.5 -7.500000000000003553 -6.280369834735096476e-17 0.7071067811865476838 -0.7071067811865473507 -10 0 8.881784197001249365e-16 forward_v I I I I #
coedge $-1 -1 $-1 $540 $541 $512 $542 forward $413 $-1 #
coedge $-1 -1 $-1 $543 $415 $544 $545 forward $345 $-1 #
coedge $-1 -1 $-1 $415 $543 $546 $547 reversed $345 $-1 #
coedge $-1 -1 $-1 $548 $549 $415 $491 reversed $440 $-1 #
edge $-1 -1 $-1 $550 -4.250000000000001776 $551 1.75 $490 $552 forward @7 unknown #
edge $-1 -1 $-1 $495 0.2500000000000008882 $428 3.249999999999998224 $437 $553 forward @7 unknown #
coedge $-1 -1 $-1 $505 $417 $510 $554 reversed $375 $-1 #
DXID-attrib $-1 -1 $-1 $-1 $418 @10 ASM ENTITY @36 91036c0e-f6aa-4587-ba37-a7f5ec6505c8 #
vertex $-1 -1 $-1 $418 $555 #
straight-curve $-1 -1 $-1 -50.00000000000000711 50 64.99999999999998579 -2.664535259100376091e-15 0 10 I I #
edge $-1 -1 $-1 $420 -1.5909902576697319 $502 4.065863991822649126 $445 $556 forward @7 unknown #
point $-1 -1 $-1 -50 50 24.99999999999998224 #
point $-1 -1 $-1 -20.00000000000004263 0 64.99999999999998579 #
straight-curve $-1 -1 $-1 -20.00000000000001421 0 0 0 -10 0 I I #
point $-1 -1 $-1 -20.00000000000001776 50 0 #
vertex $-1 -1 $-1 $497 $557 #
straight-curve $-1 -1 $-1 -42.5 10 64.99999999999998579 10 0 0 F -13.15000099999999961 F 14.65000099999999605 #
coedge $-1 -1 $-1 $459 $433 $474 $528 reversed $130 $-1 #
coedge $-1 -1 $-1 $517 $493 $433 $506 reversed $375 $-1 #
edge $558 -1 $-1 $508 0 $559 6.499999999999998224 $433 $560 forward @7 unknown #
DXID-attrib $-1 -1 $-1 $-1 $434 @10 ASM ENTITY @36 5f221329-aba9-4938-a802-8c0fe2f58324 #
vertex $-1 -1 $-1 $518 $561 #
straight-curve $-1 -1 $-1 -20.00000000000004263 0 64.99999999999998579 -10 0 0 F 0 F 2.999999999999996447 #
coedge $-1 -1 $-1 $437 $474 $493 $554 forward $338 $-1 #
edge $562 -1 $-1 $443 0 $478 7 $471 $563 forward @7 unknown #
coedge $-1 -1 $-1 $549 $548 $487 $542 reversed $440 $-1 #
DXID-attrib $-1 -1 $-1 $-1 $441 @10 ASM ENTITY @36 95e9d636-c57a-422f-90df-250c1ac4a9cd #
face $564 -1 $-1 $565 $566 $5 $-1 $567 reversed single #
plane-surface $-1 -1 $-1 -35 350 -35 0 1 0 0 0 10 forward_v I I I I #
point $-1 -1 $-1 -70 350 -70 #
coedge $-1 -1 $-1 $445 $505 $446 $518 forward $375 $-1 #
edge $568 -1 $-1 $508 0 $502 1 $517 $569 forward @7 unknown #
straight-curve $-1 -1 $-1 -70 0 -50 0 10 0 I I #
DXID-attrib $-1 -1 $-1 $-1 $455 @10 ASM ENTITY @36 ce537b67-8d98-492a-be1a-a12dba527d47 #
straight-curve $-1 -1 $-1 -135.0000000000000284 0 -20.00000000000002842 5.921189464667501023e-15 0 -10 F 0 F 3 #
point $-1 -1 $-1 -135 0 -50.00000000000002842 #
edge $570 -1 $-1 $461 4.999999999999998224 $530 7 $464 $469 forward @7 unknown #
point $-1 -1 $-1 -70 0 -20.00000000000001776 #
DXID-attrib $-1 -1 $-1 $-1 $466 @10 ASM ENTITY @36 f9cbfe63-f9d2-4038-afd4-301fea0e4172 #
straight-curve $-1 -1 $-1 -135 0 -50.00000000000002842 10 0 2.664535259100376091e-15 F 0 F 8.500000000000001776 #
point $-1 -1 $-1 -70 0 -50.00000000000000711 #
edge $571 -1 $-1 $530 0 $559 2.000000000000000888 $474 $366 forward @7 unknown #
DXID-attrib $-1 -1 $-1 $-1 $476 @10 ASM ENTITY @36 7ff4723a-ef8a-4d1e-bbd6-320f05e6345b #
vertex $-1 -1 $-1 $476 $572 #
straight-curve $-1 -1 $-1 -70 0 0 0 10 0 I I #
point $-1 -1 $-1 -70 350 0 #
DXID-attrib $-1 -1 $-1 $-1 $481 @10 ASM ENTITY @36 ec64eea4-66b6-46e7-be52-95ae5212f3e7 #
plane-surface $-1 -1 $-1 -70 0 -70 -1 0 0 0 0 10 forward_v I I I I #
DXID-attrib $-1 -1 $-1 $-1 $484 @10 ASM ENTITY @36 dd1d3cae-9c9f-44e4-90ac-e9c6aa4de920 #
face $573 -1 $-1 $574 $575 $5 $-1 $576 reversed single #
loop $-1 -1 $-1 $-1 $577 $484 #
plane-surface $-1 -1 $-1 -47.50000000000001421 347.5 -62.5 2.51214793389404007e-16 0.7071067811865474617 0.7071067811865474617 10 0 -3.552713678800500929e-15 forward_v I I I I #
coedge $-1 -1 $-1 $578 $546 $579 $580 forward $485 $-1 #
coedge $-1 -1 $-1 $581 $487 $578 $582 forward $413 $-1 #
coedge $-1 -1 $-1 $487 $581 $583 $584 forward $413 $-1 #
edge $-1 -1 $-1 $585 -4.249999999999999112 $586 1.750000000000000222 $512 $587 forward @7 unknown #
coedge $-1 -1 $-1 $489 $488 $588 $589 forward $345 $-1 #
coedge $-1 -1 $-1 $577 $590 $488 $545 reversed $537 $-1 #
edge $-1 -1 $-1 $551 0 $591 0.8660254037844390407 $488 $592 forward @7 unknown #
coedge $-1 -1 $-1 $539 $593 $489 $547 forward $485 $-1 #
edge $-1 -1 $-1 $550 -0 $594 0.8660254037844392627 $546 $595 forward @7 unknown #
coedge $-1 -1 $-1 $512 $490 $593 $596 reversed $440 $-1 #
coedge $-1 -1 $-1 $490 $512 $577 $597 reversed $440 $-1 #
vertex $-1 -1 $-1 $491 $598 #
vertex $-1 -1 $-1 $491 $599 #
straight-curve $-1 -1 $-1 -5.000000000000015987 350 -47.50000000000001421 -3.552713678800499746e-15 0 -10 F -5.300001000000001738 F 2.80000100000000085 #
straight-curve $-1 -1 $-1 -52.5 50 0 10 0 0 I I #
edge $-1 -1 $-1 $559 0 $495 5 $510 $600 forward @7 unknown #
point $-1 -1 $-1 -49.99999999999999289 50 0 #
straight-curve $-1 -1 $-1 -50 38.74999999999999289 36.24999999999997868 -1.884110950420530693e-15 -7.071067811865475505 7.071067811865475505 I I #
point $-1 -1 $-1 -50.00000000000000711 10 64.99999999999998579 #
DXID-attrib $-1 -1 $-1 $-1 $506 @10 ASM ENTITY @36 e727e0a9-55d9-4767-a279-5a6eb6ac83c3 #
vertex $-1 -1 $-1 $554 $601 #
straight-curve $-1 -1 $-1 -50.00000000000000711 0 64.99999999999998579 2.664535259100376091e-15 0 -10 F 0 F 8.5 #
point $-1 -1 $-1 -50.00000000000000711 0 64.99999999999998579 #
DXID-attrib $-1 -1 $-1 $-1 $511 @10 ASM ENTITY @36 843526f0-d00a-4ec0-9d64-07844c12c394 #
straight-curve $-1 -1 $-1 -70 350 -70 0 0 10 I I #
DXID-attrib $-1 -1 $-1 $-1 $514 @10 ASM ENTITY @36 5177d1ee-efc9-4cde-b370-084195bb9602 #
face $602 -1 $-1 $603 $604 $5 $-1 $605 reversed single #
loop $-1 -1 $-1 $-1 $579 $514 #
plane-surface $-1 -1 $-1 -10 350 -10.00000000000000355 8.881784197001249119e-17 0 1 -10 0 8.881784197001249365e-16 forward_v I I I I #
DXID-attrib $-1 -1 $-1 $-1 $518 @10 ASM ENTITY @36 16e1850f-4411-4964-ad57-51c2665b0ff3 #
straight-curve $-1 -1 $-1 -50.00000000000000711 0 64.99999999999998579 0 10 0 I I #
DXID-attrib $-1 -1 $-1 $-1 $523 @10 ASM ENTITY @36 9efb7457-cce4-4447-96b0-9096a9a73c6f #
DXID-attrib $-1 -1 $-1 $-1 $528 @10 ASM ENTITY @36 89e301ed-9363-4a9a-ba34-c230e3df9156 #
point $-1 -1 $-1 -70 0 0 #
DXID-attrib $-1 -1 $-1 $-1 $536 @10 ASM ENTITY @36 c353c7da-9f03-4625-be7c-5258ebf365ab #
face $606 -1 $-1 $441 $607 $5 $-1 $608 reversed single #
loop $-1 -1 $-1 $-1 $609 $536 #
plane-surface $-1 -1 $-1 -60.00000000000001421 350 -60 -3.552713678800501127e-16 -0 -1 10 0 -3.552713678800500929e-15 forward_v I I I I #
coedge $-1 -1 $-1 $583 $544 $549 $597 forward $537 $-1 #
coedge $-1 -1 $-1 $593 $539 $540 $582 reversed $485 $-1 #
coedge $-1 -1 $-1 $610 $611 $539 $580 reversed $566 $-1 #
edge $-1 -1 $-1 $594 -1.249999999999999556 $612 3.750000000000001776 $579 $613 forward @7 unknown #
coedge $-1 -1 $-1 $541 $540 $614 $615 forward $413 $-1 #
edge $-1 -1 $-1 $586 0 $612 0.8660254037844387076 $540 $616 forward @7 unknown #
coedge $-1 -1 $-1 $590 $577 $541 $584 reversed $537 $-1 #
edge $-1 -1 $-1 $617 0 $585 0.8660254037844381525 $541 $618 forward @7 unknown #
vertex $-1 -1 $-1 $542 $619 #
vertex $-1 -1 $-1 $542 $620 #
straight-curve $-1 -1 $-1 -65.00000000000001421 350 -22.5 0 0 10 F -5.300000999999999962 F 2.800000999999999962 #
coedge $-1 -1 $-1 $621 $622 $543 $589 reversed $604 $-1 #
edge $-1 -1 $-1 $591 -1.25 $594 3.750000000000001332 $588 $623 forward @7 unknown #
coedge $-1 -1 $-1 $544 $583 $609 $624 forward $537 $-1 #
vertex $-1 -1 $-1 $545 $625 #
straight-curve $-1 -1 $-1 -5.000000000000017764 350 -65.00000000000001421 -5.773502691896260863 -5.773502691896256422 5.773502691896256422 F 0 F 0.8660254037844390407 #
coedge $-1 -1 $-1 $546 $578 $548 $596 forward $485 $-1 #
vertex $-1 -1 $-1 $589 $626 #
straight-curve $-1 -1 $-1 -5 350 -5 -5.773502691896259975 -5.773502691896253758 -5.773502691896259975 F -0 F 0.8660254037844392627 #
edge $-1 -1 $-1 $586 -4.250000000000001776 $550 1.75 $548 $627 forward @7 unknown #
edge $-1 -1 $-1 $551 -4.25 $585 1.75 $549 $628 forward @7 unknown #
point $-1 -1 $-1 -5 350 -5 #
point $-1 -1 $-1 -5.000000000000017764 350 -65.00000000000001421 #
straight-curve $-1 -1 $-1 -49.99999999999998579 0 0 0 10 0 I I #
point $-1 -1 $-1 -49.99999999999999289 0 0 #
DXID-attrib $-1 -1 $-1 $-1 $565 @10 ASM ENTITY @36 df7d4566-09c6-41d2-ad05-e8621a2fd815 #
face $629 -1 $-1 $409 $630 $5 $-1 $631 reversed single #
loop $-1 -1 $-1 $-1 $588 $565 #
plane-surface $-1 -1 $-1 -10.00000000000002132 350 -60.00000000000001421 1 0 -3.552713678800499647e-16 3.552713678800499746e-15 0 10 forward_v I I I I #
DXID-attrib $-1 -1 $-1 $-1 $574 @10 ASM ENTITY @36 2715ebc5-8672-4a6e-ad02-a2f048fcdc02 #
loop $-1 -1 $-1 $-1 $614 $574 #
plane-surface $-1 -1 $-1 -60.00000000000001421 350 -10 -1 -0 -0 0 0 -10 forward_v I I I I #
coedge $-1 -1 $-1 $632 $633 $590 $624 reversed $575 $-1 #
coedge $-1 -1 $-1 $634 $579 $622 $635 forward $566 $-1 #
coedge $-1 -1 $-1 $579 $634 $636 $637 reversed $566 $-1 #
vertex $-1 -1 $-1 $582 $638 #
straight-curve $-1 -1 $-1 -22.5 345 -10.00000000000000355 -10 0 8.881784197001249365e-16 F -2.800001000000000406 F 5.300001000000002627 #
coedge $-1 -1 $-1 $636 $639 $581 $615 reversed $607 $-1 #
edge $-1 -1 $-1 $612 -1.25 $617 3.75 $614 $640 forward @7 unknown #
straight-curve $-1 -1 $-1 -65.00000000000001421 350 -4.999999999999998224 5.773502691896256422 -5.773502691896256422 -5.773502691896259975 F 0 F 0.8660254037844387076 #
vertex $-1 -1 $-1 $615 $641 #
straight-curve $-1 -1 $-1 -60.00000000000001421 345 -60 -5.773502691896260863 5.773502691896260863 -5.773502691896251093 F 0 F 0.8660254037844381525 #
point $-1 -1 $-1 -65.00000000000001421 350 -64.99999999999998579 #
point $-1 -1 $-1 -65.00000000000001421 350 -4.999999999999998224 #
coedge $-1 -1 $-1 $642 $588 $633 $643 forward $604 $-1 #
coedge $-1 -1 $-1 $588 $642 $610 $635 reversed $604 $-1 #
straight-curve $-1 -1 $-1 -10.00000000000001776 345 -47.50000000000001421 3.552713678800499746e-15 0 10 F -2.80000100000000085 F 5.300001000000001738 #
edge $-1 -1 $-1 $617 -1.25 $591 3.749999999999999556 $609 $644 forward @7 unknown #
point $-1 -1 $-1 -10.00000000000002132 345 -60.00000000000001421 #
point $-1 -1 $-1 -10.00000000000000355 345 -10.00000000000000355 #
straight-curve $-1 -1 $-1 -22.5 350 -5.000000000000001776 10 0 -8.881784197001249365e-16 F -5.300001000000002627 F 2.800001000000000406 #
straight-curve $-1 -1 $-1 -47.50000000000001421 350 -65 -10 0 3.552713678800500929e-15 F -5.300001000000001738 F 2.800000999999999962 #
DXID-attrib $-1 -1 $-1 $-1 $603 @10 ASM ENTITY @36 674bf939-8e29-418f-9423-e0d2a77cdd1c #
loop $-1 -1 $-1 $-1 $645 $603 #
plane-surface $-1 -1 $-1 -35.00000000000000711 300 -35.00000000000000711 0 -1 0 0 0 -10 forward_v I I I I #
coedge $-1 -1 $-1 $646 $609 $639 $647 forward $575 $-1 #
coedge $-1 -1 $-1 $609 $646 $621 $643 reversed $575 $-1 #
coedge $-1 -1 $-1 $611 $610 $648 $649 forward $566 $-1 #
edge $650 -1 $-1 $594 0.5 $651 5 $622 $652 forward @7 unknown #
coedge $-1 -1 $-1 $653 $614 $611 $637 forward $607 $-1 #
edge $654 -1 $-1 $612 0.5 $655 5 $611 $656 forward @7 unknown #
point $-1 -1 $-1 -60.00000000000001421 345 -10 #
coedge $-1 -1 $-1 $614 $653 $632 $647 reversed $607 $-1 #
straight-curve $-1 -1 $-1 -60.00000000000001421 345 -22.5 0 0 -10 F -2.800000999999999962 F 5.300000999999999962 #
point $-1 -1 $-1 -60.00000000000001421 345 -60 #
coedge $-1 -1 $-1 $622 $621 $657 $658 forward $604 $-1 #
edge $659 -1 $-1 $591 0.5 $660 5 $633 $661 forward @7 unknown #
straight-curve $-1 -1 $-1 -47.50000000000001421 345 -60 10 0 -3.552713678800500929e-15 F -2.800000999999999962 F 5.300001000000001738 #
coedge $-1 -1 $-1 $662 $657 $646 $663 reversed $630 $-1 #
coedge $-1 -1 $-1 $633 $632 $645 $663 forward $575 $-1 #
edge $664 -1 $-1 $617 0.5 $665 5 $632 $666 forward @7 unknown #
coedge $-1 -1 $-1 $657 $662 $634 $649 reversed $630 $-1 #
edge $667 -1 $-1 $651 -5.000000000000001776 $655 -0 $634 $668 forward @7 unknown #
DXID-attrib $-1 -1 $-1 $-1 $635 @10 ASM ENTITY @36 ae6dac72-8335-4c13-b390-8689303d7e9b #
vertex $-1 -1 $-1 $635 $669 #
straight-curve $-1 -1 $-1 -10.00000000000000355 350 -10.00000000000000355 0 -10 0 I I #
coedge $-1 -1 $-1 $639 $636 $662 $670 forward $607 $-1 #
DXID-attrib $-1 -1 $-1 $-1 $637 @10 ASM ENTITY @36 8a5a612a-b965-4bd6-b405-142be157e394 #
vertex $-1 -1 $-1 $637 $671 #
straight-curve $-1 -1 $-1 -60.00000000000001421 350 -10 0 -10 0 I I #
coedge $-1 -1 $-1 $645 $648 $642 $658 reversed $630 $-1 #
edge $672 -1 $-1 $660 -5.000000000000001776 $651 -4.440892098500626162e-16 $642 $673 forward @7 unknown #
DXID-attrib $-1 -1 $-1 $-1 $643 @10 ASM ENTITY @36 f644c74b-5bad-4523-b89f-2e6757204e28 #
vertex $-1 -1 $-1 $663 $674 #
straight-curve $-1 -1 $-1 -10.00000000000002132 350 -60.00000000000001421 0 -10 0 I I #
coedge $-1 -1 $-1 $648 $645 $653 $670 reversed $630 $-1 #
edge $675 -1 $-1 $665 -5 $660 -4.440892098500626162e-16 $646 $676 forward @7 unknown #
DXID-attrib $-1 -1 $-1 $-1 $647 @10 ASM ENTITY @36 c56c621d-9b10-4c87-ba70-b782e6d4927a #
vertex $-1 -1 $-1 $647 $677 #
straight-curve $-1 -1 $-1 -60.00000000000001421 350 -60 0 -10 0 I I #
DXID-attrib $-1 -1 $-1 $-1 $649 @10 ASM ENTITY @36 bf0c807b-8d08-44f2-b41f-9b4723f69b6b #
straight-curve $-1 -1 $-1 -60.00000000000001421 300 -10 -10 0 8.881784197001249365e-16 I I #
point $-1 -1 $-1 -10.00000000000000355 300 -10 #
edge $678 -1 $-1 $655 -5 $665 -0 $653 $679 forward @7 unknown #
point $-1 -1 $-1 -60.00000000000001421 300 -10 #
DXID-attrib $-1 -1 $-1 $-1 $658 @10 ASM ENTITY @36 33706ab1-1a5c-4c36-a86f-1cfdeacbab5d #
straight-curve $-1 -1 $-1 -10.00000000000000355 300 -10 3.552713678800499746e-15 0 10 I I #
point $-1 -1 $-1 -10.00000000000002132 300 -60.00000000000001421 #
DXID-attrib $-1 -1 $-1 $-1 $663 @10 ASM ENTITY @36 a9977990-037c-4a6c-9df6-727590a223fb #
straight-curve $-1 -1 $-1 -10.00000000000001776 300 -60.00000000000001421 10 0 -3.552713678800500929e-15 I I #
point $-1 -1 $-1 -60.00000000000001421 300 -60 #
DXID-attrib $-1 -1 $-1 $-1 $670 @10 ASM ENTITY @36 c7dd89e4-cde8-4364-b22e-5907f5163c16 #
straight-curve $-1 -1 $-1 -60.00000000000001421 300 -60 0 0 -10 I I #
End-of-ACIS-data 