700 0 1 0           
30 Autodesk Translation Framework 20 ASM 226.0.3.65535 NT 24 Sat Apr  3 13:38:39 2021 
1 9.999999999999999547e-07 1.000000000000000036e-10 
body $1 -1 $-1 $2 $-1 $3 #
rgb_color-st-attrib $-1 -1 $4 $-1 $0 0.7490196078431372584 0.7490196078431372584 0.7490196078431372584 #
lump $-1 -1 $-1 $-1 $5 $0 #
transform $-1 -1 1 0 0 0 1 0 0 0 1 0 0 0 1 no_rotate no_reflect no_shear #
DXID-attrib $-1 -1 $-1 $1 $0 @10 ASM ENTITY @95 SLIDE.IPT|:|D43C143E61FB45F1622E43C2CE19FC21DE42E3BB|:|DA4B9237BACCCDF19C0760CAB7AEC4A8359010B0 #
shell $-1 -1 $-1 $-1 $-1 $6 $-1 $2 #
face $7 -1 $-1 $8 $9 $5 $-1 $10 forward single #
DXID-attrib $-1 -1 $-1 $-1 $6 @10 ASM ENTITY @36 04404397-40bd-4405-a065-eea45a8fd18d #
face $11 -1 $-1 $12 $13 $5 $-1 $14 forward single #
loop $-1 -1 $-1 $-1 $15 $6 #
cone-surface $-1 -1 $-1 222.6584882348570886 215.3470511765349329 -11.58161403263274636 0.4233370042561317437 0.905972284800944716 0 -44.06664668159383069 20.59118419709509595 11.58161403263274636 1 I I 0 1 49.99999999999999289 reversed I I F 0 F 0.8733934550086231985 #
DXID-attrib $-1 -1 $-1 $-1 $8 @10 ASM ENTITY @36 cd3a8c5b-4fc7-4584-92bc-f8bbb94a91bf #
face $16 -1 $-1 $17 $18 $5 $-1 $19 forward single #
loop $-1 -1 $-1 $-1 $20 $8 #
plane-surface $-1 -1 $-1 205.7710100972915939 223.2381252459460939 35 -0.4051631229091423592 0.1893220637815656582 0.8944271909999158554 9.109007905428233798 0 4.126254352175341644 forward_v I I I I #
coedge $-1 -1 $-1 $21 $22 $23 $24 reversed $9 $-1 #
DXID-attrib $-1 -1 $-1 $-1 $12 @10 ASM ENTITY @36 241cf368-797b-4299-b288-8fdcac29e7f2 #
face $25 -1 $-1 $26 $27 $5 $-1 $28 forward single #
loop $-1 -1 $-1 $-1 $29 $12 #
cone-surface $-1 -1 $-1 243.6437308885110156 205.5411995984838995 2.220446049250313081e-15 0.4233370042561317437 0.905972284800944716 0 -10.40748891839911039 4.863145655180817428 48.66244947338651627 1 I I 0 1 50 forward I I I I #
coedge $-1 -1 $-1 $30 $31 $21 $32 reversed $13 $-1 #
coedge $-1 -1 $-1 $33 $15 $20 $32 forward $9 $-1 #
coedge $-1 -1 $-1 $15 $33 $34 $35 reversed $9 $-1 #
coedge $-1 -1 $-1 $36 $37 $15 $24 forward $38 $-1 #
edge $-1 -1 $-1 $39 24.91231438844204504 $40 29.12425942037009818 $15 $41 forward @7 unknown #
DXID-attrib $-1 -1 $-1 $-1 $17 @10 ASM ENTITY @36 1aeb07d8-9d7b-4f15-90f8-d1c6a0b84a00 #
face $42 -1 $-1 $43 $44 $5 $-1 $45 forward single #
loop $-1 -1 $-1 $-1 $46 $17 #
plane-surface $-1 -1 $-1 178.5918415532632366 235.9382353736300502 50 0 0 1 9.059722848009446494 -4.233370042561318769 0 forward_v I I I I #
coedge $-1 -1 $-1 $47 $48 $49 $50 forward $18 $-1 #
coedge $-1 -1 $-1 $51 $20 $37 $52 forward $13 $-1 #
coedge $-1 -1 $-1 $20 $51 $53 $54 forward $13 $-1 #
edge $-1 -1 $-1 $39 0.1284089463212451931 $55 0.999999999999999778 $20 $56 forward @7 tangent #
coedge $-1 -1 $-1 $22 $21 $57 $58 forward $9 $-1 #
coedge $-1 -1 $-1 $59 $60 $22 $35 forward $61 $-1 #
edge $-1 -1 $-1 $40 1.139763144360765867 $62 5.000000000000002665 $34 $63 forward @7 unknown #
coedge $-1 -1 $-1 $64 $23 $60 $65 reversed $38 $-1 #
coedge $-1 -1 $-1 $23 $66 $30 $52 reversed $38 $-1 #
loop $-1 -1 $-1 $-1 $67 $68 #
vertex $-1 -1 $-1 $24 $69 #
vertex $-1 -1 $-1 $24 $70 #
intcurve-curve $-1 -1 $-1 forward { surfintcur full nubs 3 periodic 33 
	0 3 0.9425554120929389157 2 1.885110824185877831 2 2.827666236278816747 2 3.770221648371755663 2 
	4.723609292131817128 2 5.676996935891879481 2 6.630384579651941834 2 7.583772223412003299 2 8.5285333626771056 2 
	9.473294501942206125 2 10.41805564120730843 2 11.36281678047241073 2 12.30446162949918332 2 13.24610647852595591 2 
	14.1877513275527285 2 15.12939617657950109 2 16.07125459815595292 2 17.0131130197324083 2 17.95497144130886369 2 
	18.89682986288531907 2 19.84137739063448436 2 20.78592491838364964 2 21.73047244613281492 2 22.67501997388198021 2 
	23.6284076176420399 2 24.58179526140210314 2 25.53518290516216638 2 26.48857054892222607 2 27.43112596101516587 2 
	28.37368137310810567 2 29.31623678520104193 2 30.25879219729398173 3 
	182.3108167729562012 247.1092825999151898 -11.58161403263274636 
	182.3108167729562012 247.1092825999151898 -14.7234654062758743 
	182.5552694493802903 246.9215568628312667 -17.96977419844440149 
	183.5837577683216466 246.1365648716871419 -24.42138122995176275 
	184.3675851140180555 245.5395389539026496 -27.62674191367611343 
	186.4418465287660354 243.9755204900084209 -33.7688253744527529 
	187.7340485985416478 243.0074837099191427 -36.71063215953341086 
	190.7251378066857797 240.7966353485396098 -42.14739038467555332 
	192.4243488359569483 239.5540048255100203 -44.64223725297630097 
	196.0735528650693595 236.9260589853640226 -49.08264392404500143 
	198.1531965428963531 235.4474825005773653 -51.17642769646771939 
	202.7042257845581901 232.2738407747506812 -54.86705635481108345 
	205.1756363707008006 230.5791261735704722 -56.46417189349072174 
	210.360682667754844 227.0987592596941056 -59.03083317091683568 
	213.0784426000431608 225.3105948530264584 -60.00233183333811837 
	218.5770372443305973 221.7716736517705272 -61.27788824909291776 
	221.3579695541299941 220.0209488541448763 -61.58161403263274991 
	226.7440802827093762 216.7008889278896788 -61.58161403263272859 
	229.5329598989415842 215.0176747564592574 -61.28326661222679661 
	235.1139763949103383 211.7243335804303115 -60.02229446748841468 
	237.9061093597510705 210.1141146654859142 -59.05989247412385623 
	243.2892682202640628 207.0746800760528288 -56.51041600769439555 
	245.8845594513427955 205.6428065729833747 -54.92125215190228005 
	250.7042252777995941 203.0322546242348665 -51.24468184825924766 
	252.928320040059134 201.8533788974295931 -49.15704865448429928 
	256.870479039135148 199.7938473018126615 -44.71217440854067604 
	258.7240102597929194 198.8425859694059739 -42.20511993105545656 
	261.999091485202996 197.1824275457952922 -36.74550534791702461 
	263.4207001677444282 196.4731299192914662 -33.7931022448681162 
	265.7070792706408611 195.3410392338299175 -27.63454366722884359 
	266.5735842069888122 194.9171468708064765 -24.42347870782541719 
	267.7106648702336429 194.3622385836708304 -17.96644825090217878 
	267.9809760776886378 194.2312922272925846 -14.72043019605532166 
	267.9809760776886378 194.2312922272925846 -8.442085960711239068 
	267.7105423100193775 194.3622978167360031 -5.195355055912314057 
	266.5729693041270707 194.9174475284786183 1.263013171996567374 
	265.7060948763396482 195.3415220179128937 4.4747031211601076 
	263.418766218475696 196.4740921462775418 10.63434653001958807 
	261.9965760945253237 197.1836879759177634 13.58721219765627097 
	258.7201794660069822 198.8445424868365023 19.0475347070830594 
	256.865914189681007 199.7962020306227089 21.55483434550157895 
	252.9231091055547722 201.8561315723413259 25.99895087726205034 
	250.6992452294928739 203.0349190840699407 28.08574832933857479 
	245.8802301353684072 205.6451845553299336 31.76083001451677745 
	243.2853584830757541 207.0768596886836121 33.34934077688450316 
	237.9031692504324269 210.1158026429112624 35.89775529405489607 
	235.1115887194444269 211.7257267861655237 36.85974678236195956 
	229.5317392085163704 215.0184108468574209 38.12017334809859648 
	226.7434741472536075 216.7012625566800921 38.41838596736725009 
	221.3579695541299941 220.0209488541448195 38.41838596736725009 
	218.5770372443306542 221.7716736517704703 38.11466018382743925 
	213.0784426000432177 225.31059485302643 36.83910376807264697 
	210.360682667754844 227.0987592596940772 35.86760510565133586 
	205.1756363707008006 230.5791261735705007 33.30094382822522903 
	202.7042257845581616 232.2738407747506528 31.70382828954558363 
	198.1531965428962963 235.44748250057728 28.01319963120224088 
	196.0735528650693595 236.9260589853640226 25.91941585877951582 
	192.4243488359569483 239.5540048255100203 21.47900918771082246 
	190.7251378066857797 240.7966353485396098 18.9841623194100606 
	187.7340485985416478 243.0074837099191427 13.54740409426792347 
	186.4418465287660354 243.9755204900084209 10.60559730918726906 
	184.3675851140180271 245.5395389539026496 4.463513848410622487 
	183.5837577683216466 246.1365648716871419 1.258153164686271142 
	182.5552694493802903 246.9215568628312667 -5.193453866821081455 
	182.3108167729562012 247.1092825999151898 -8.43976265898961131 
	182.3108167729562012 247.1092825999151898 -11.58161403263274636 
	0.001885379618892029817 
	
	cone 222.6584882348570886 215.3470511765349329 -11.58161403263274636 0.4233370042561317437 0.905972284800944716 0 -44.06664668159383069 20.59118419709509595 11.58161403263274636 1 I I 0 1 49.99999999999999289 reversed I I F 0 F 0.8733934550086231985 
	cone 486.4288875213435404 643.9873483131500507 0 0 0 1 -436.4288875213435404 -243.9873483131501075 0 1 I I -0 -1 499.9999999999999432 forward I I I I 
	nullbs 
	nullbs 
	I I 
	0 
	0 
	0 
	} I I #
DXID-attrib $-1 -1 $-1 $-1 $26 @10 ASM ENTITY @36 c4ad5d88-4c22-46fb-a196-33932f05f8de #
face $71 -1 $-1 $72 $73 $5 $-1 $74 forward single #
loop $-1 -1 $-1 $-1 $75 $26 #
cone-surface $-1 -1 $-1 222.6584882348570886 215.3470511765349329 411.5816140326327286 -0.4233370042561319657 -0.905972284800944494 5.551115123125782702e-17 -44.06664668159383069 20.59118419709509595 -11.58161403263271438 1 I I 0 1 49.99999999999998579 reversed I I F 0 F 0.8733934550086238646 #
coedge $-1 -1 $-1 $76 $77 $48 $78 reversed $27 $-1 #
coedge $-1 -1 $-1 $79 $29 $51 $80 forward $18 $-1 #
coedge $-1 -1 $-1 $29 $79 $46 $78 forward $18 $-1 #
coedge $-1 -1 $-1 $81 $53 $29 $50 reversed $82 $-1 #
edge $-1 -1 $-1 $83 6.05136150267918449 $84 6.515009111679989751 $49 $85 forward @7 unknown #
coedge $-1 -1 $-1 $31 $30 $47 $80 reversed $13 $-1 #
edge $-1 -1 $-1 $39 1.41036895659617656 $86 1.457138127734701083 $30 $87 forward @7 unknown #
coedge $-1 -1 $-1 $49 $57 $31 $54 reversed $82 $-1 #
edge $-1 -1 $-1 $84 5.540357763478982456 $55 8.130085390092212094 $53 $88 forward @7 unknown #
vertex $-1 -1 $-1 $32 $89 #
straight-curve $-1 -1 $-1 202.4003320893999671 224.8131543656132294 33.13974551736303908 21.16685021280658674 45.29861424004722892 0 F 0.1284089463212451931 F 0.999999999999999778 #
coedge $-1 -1 $-1 $53 $90 $33 $58 reversed $82 $-1 #
edge $-1 -1 $-1 $55 5.409791852170962478 $62 6.283185307179586232 $57 $91 forward @7 unknown #
coedge $-1 -1 $-1 $92 $34 $90 $93 reversed $61 $-1 #
coedge $-1 -1 $-1 $34 $94 $36 $65 forward $61 $-1 #
loop $-1 -1 $-1 $-1 $92 $95 #
vertex $-1 -1 $-1 $58 $96 #
straight-curve $-1 -1 $-1 178.5918415532632366 235.9382353736300502 0 4.233370042561316993 9.059722848009446494 0 I I #
coedge $-1 -1 $-1 $97 $36 $98 $99 forward $38 $-1 #
edge $-1 -1 $-1 $100 -6.283185307179586232 $40 -5.873209492976170232 $36 $101 reversed @7 unknown #
coedge $-1 -1 $-1 $37 $102 $79 $103 reversed $38 $-1 #
coedge $-1 -1 $-1 $104 $105 $106 $107 reversed $38 $-1 #
face $108 -1 $-1 $109 $38 $5 $-1 $110 forward single #
point $-1 -1 $-1 205.1183450221661815 230.6299016899902199 33.13974551736304619 #
point $-1 -1 $-1 183.4168807042155436 246.2641735739143769 0 #
DXID-attrib $-1 -1 $-1 $-1 $43 @10 ASM ENTITY @36 82c50f3e-de0c-4353-8486-dea832a2d945 #
face $111 -1 $-1 $68 $112 $5 $-1 $113 forward single #
loop $-1 -1 $-1 $-1 $114 $43 #
cone-surface $-1 -1 $-1 243.6437308885110156 205.5411995984838995 400 -0.4233370042561317992 -0.905972284800944494 -0 -10.40748891839915302 4.863145655180856508 -48.66244947338650206 1 I I 0 1 50 forward I I I I #
coedge $-1 -1 $-1 $115 $116 $117 $118 forward $44 $-1 #
coedge $-1 -1 $-1 $119 $46 $102 $120 forward $27 $-1 #
coedge $-1 -1 $-1 $46 $121 $81 $122 reversed $27 $-1 #
edge $-1 -1 $-1 $123 0.1181052488933939104 $83 4.999999999999997335 $46 $124 forward @7 tangent #
coedge $-1 -1 $-1 $48 $47 $66 $103 forward $18 $-1 #
edge $-1 -1 $-1 $84 -4.999999999999999112 $86 -0.3226071393146207056 $51 $125 forward @7 tangent #
coedge $-1 -1 $-1 $126 $49 $77 $122 forward $82 $-1 #
loop $-1 -1 $-1 $-1 $57 $127 #
vertex $-1 -1 $-1 $50 $128 #
vertex $-1 -1 $-1 $80 $129 #
ellipse-curve $-1 -1 $-1 264.8105811013176094 250.8398138385311427 2.220446049250313081e-15 -0.4233370042561317437 -0.905972284800944716 -0 -10.40748891839911039 4.863145655180817428 48.66244947338651627 1 F 2.90976884908939093 F 9.192954156268976718 #
vertex $-1 -1 $-1 $52 $130 #
ellipse-curve $-1 -1 $-1 486.4288875213435404 643.9873483131500507 73.07477141044336122 -0.4051631229091423592 0.1893220637815656582 0.8944271909999158554 -452.9861424004723176 211.6685021280658248 -250 0.8944271909999158554 F -1.133670822402866207 F 5.149514484776720025 #
straight-curve $-1 -1 $-1 289.4473980255616539 239.3276777102082065 69.49859270761120911 -8.103262458182847183 3.786441275631313275 -4.47213595499957961 I I #
point $-1 -1 $-1 223.567182302206561 270.1117686056604725 33.13974551736302487 #
coedge $-1 -1 $-1 $57 $126 $59 $93 forward $82 $-1 #
ellipse-curve $-1 -1 $-1 243.8253384476636825 260.6456654165822329 -11.58161403263274636 -0.4233370042561317437 -0.905972284800944716 -0 -44.06664668159383069 20.59118419709509595 11.58161403263274636 1 F 1.80455158958036388 F 8.087736896759949445 #
coedge $-1 -1 $-1 $131 $59 $132 $133 reversed $61 $-1 #
edge $134 -1 $-1 $135 0.3635911392909332851 $62 41.49859270761120911 $59 $136 forward @7 unknown #
coedge $-1 -1 $-1 $60 $137 $138 $139 reversed $61 $-1 #
face $140 -1 $-1 $-1 $61 $5 $-1 $141 reversed single #
point $-1 -1 $-1 199.7586917660698305 281.2368496136772933 0 #
coedge $-1 -1 $-1 $142 $64 $143 $144 forward $38 $-1 #
coedge $-1 -1 $-1 $138 $145 $64 $99 reversed $146 $-1 #
edge $-1 -1 $-1 $100 0 $147 40 $98 $148 forward @7 unknown #
vertex $-1 -1 $-1 $65 $149 #
ellipse-curve $-1 -1 $-1 486.4288875213435404 643.9873483131500507 0 -0 -0 -1 -436.4288875213435404 -243.9873483131501075 0 1 F 2.080564257602839362 F 8.363749564782425594 #
coedge $-1 -1 $-1 $66 $104 $76 $120 reversed $38 $-1 #
edge $-1 -1 $-1 $86 -24.85981251193348385 $123 -22.63335506777862705 $79 $150 reversed @7 unknown #
coedge $-1 -1 $-1 $102 $67 $151 $152 forward $38 $-1 #
coedge $-1 -1 $-1 $67 $153 $154 $155 reversed $38 $-1 #
coedge $-1 -1 $-1 $156 $157 $67 $107 forward $158 $-1 #
edge $-1 -1 $-1 $159 5.659282415584662829 $160 5.728028840762815932 $106 $161 forward @7 unknown #
DXID-attrib $-1 -1 $-1 $-1 $68 @10 ASM ENTITY @36 78ece607-91c7-4fff-a6dc-b8b5567f5e5d #
face $162 -1 $-1 $163 $164 $5 $-1 $165 forward single #
cone-surface $-1 -1 $-1 486.4288875213435404 643.9873483131500507 0 0 0 1 -436.4288875213435404 -243.9873483131501075 0 1 I I -0 -1 499.9999999999999432 forward I I I I #
DXID-attrib $-1 -1 $-1 $-1 $72 @10 ASM ENTITY @36 662f9cd0-f671-4c10-bd52-5f4b37ba28f0 #
loop $-1 -1 $-1 $-1 $166 $72 #
plane-surface $-1 -1 $-1 205.771010097291537 223.2381252459460939 365 -0.4051631229091424702 0.189322063781565797 -0.8944271909999157444 -9.109007905428232021 0 4.126254352175343421 forward_v I I I I #
coedge $-1 -1 $-1 $167 $168 $169 $170 forward $73 $-1 #
coedge $-1 -1 $-1 $171 $75 $166 $172 forward $44 $-1 #
coedge $-1 -1 $-1 $75 $171 $173 $174 forward $44 $-1 #
coedge $-1 -1 $-1 $175 $176 $75 $118 reversed $177 $-1 #
edge $-1 -1 $-1 $178 -4.973799150320694872e-16 $179 0.8733934550086236426 $117 $180 forward @7 unknown #
coedge $-1 -1 $-1 $181 $76 $182 $183 reversed $27 $-1 #
edge $-1 -1 $-1 $123 0.555156466416769967 $184 0.6239028915949234033 $76 $185 forward @7 unknown #
coedge $-1 -1 $-1 $77 $181 $186 $187 reversed $27 $-1 #
edge $188 -1 $-1 $83 7.18033988749894192 $189 41.13500156832026988 $77 $190 forward @7 unknown #
vertex $-1 -1 $-1 $103 $191 #
straight-curve $-1 -1 $-1 243.6437308885110156 205.5411995984838995 50 4.233370042561316993 9.059722848009446494 0 F -22.10684330654923002 F 21.62236875523851509 #
straight-curve $-1 -1 $-1 223.3855747430539225 215.007302787562196 44.721359549995789 -4.233370042561316993 -9.059722848009446494 -0 F -21.62236875523851509 F 22.10684330654923002 #
coedge $-1 -1 $-1 $90 $81 $192 $193 reversed $82 $-1 #
face $194 -1 $-1 $195 $82 $5 $-1 $196 forward single #
point $-1 -1 $-1 264.8105811013176094 250.8398138385311142 50 #
point $-1 -1 $-1 244.5524249558605163 260.3059170276093823 44.72135954999578189 #
point $-1 -1 $-1 224.7512901421449101 217.9300340585417928 44.72135954999581031 #
coedge $-1 -1 $-1 $197 $92 $198 $199 reversed $61 $-1 #
coedge $-1 -1 $-1 $192 $200 $92 $133 forward $201 $-1 #
edge $202 -1 $-1 $203 -0 $135 2.756959467251441254 $132 $204 forward @7 unknown #
DXID-attrib $-1 -1 $-1 $-1 $93 @10 ASM ENTITY @36 dd2076cd-02a1-4b01-88e3-1ee0a64644dc #
vertex $-1 -1 $-1 $193 $205 #
straight-curve $-1 -1 $-1 575.7244402794533471 105.5579504368223951 0 -9.059722848009448271 4.233370042561319657 0 I I #
coedge $-1 -1 $-1 $94 $197 $206 $207 reversed $61 $-1 #
coedge $-1 -1 $-1 $208 $98 $94 $139 forward $146 $-1 #
edge $209 -1 $-1 $100 54.99999999999998579 $210 60 $138 $211 forward @7 unknown #
DXID-attrib $-1 -1 $-1 $-1 $95 @10 ASM ENTITY @36 7d5134eb-3331-4ef8-b8f2-fdd52eeee8a1 #
plane-surface $-1 -1 $-1 299.9999999999998863 200 0 0 0 1 10 0 0 forward_v I I I I #
coedge $-1 -1 $-1 $153 $97 $171 $212 reversed $38 $-1 #
coedge $-1 -1 $-1 $213 $173 $97 $144 reversed $214 $-1 #
edge $-1 -1 $-1 $147 0 $215 0.4099758142034159447 $97 $216 forward @7 unknown #
coedge $-1 -1 $-1 $98 $208 $213 $217 reversed $146 $-1 #
loop $-1 -1 $-1 $-1 $138 $218 #
vertex $-1 -1 $-1 $99 $219 #
straight-curve $-1 -1 $-1 50 400 0 0 0 10 I I #
point $-1 -1 $-1 50 400 0 #
intcurve-curve $-1 -1 $-1 forward { surfintcur full nubs 3 open 5 
	21.69113690529237459 3 22.63335506777862705 2 23.5806546190441324 2 24.52795417030963421 2 25.47525372157513601 3 
	252.6022933118478022 202.0313280573018915 49.06934169647620081 
	249.7469001896706402 203.5420368570174503 49.70070441249986004 
	246.8910724469313038 205.0892971477644267 50 
	241.3815392534916668 208.1413113273522697 50 
	238.5405479235460291 209.7501796903906666 49.69752413366515498 
	232.9206225655368598 213.006946065948398 48.42618020927584865 
	230.1415956946180472 214.6548049125302668 47.45762224999153034 
	224.8381161169356801 217.8654442859890992 44.89839147180550327 
	222.3093820341233879 219.4305676687943389 43.30573107156539692 
	219.9807444807348702 220.8970659026327326 41.46598764658628511 
	0.001853249735360779603 
	
	cone 243.6437308885110156 205.5411995984838995 2.220446049250313081e-15 0.4233370042561317437 0.905972284800944716 0 -10.40748891839911039 4.863145655180817428 48.66244947338651627 1 I I 0 1 50 forward I I I I 
	cone 486.4288875213435404 643.9873483131500507 0 0 0 1 -436.4288875213435404 -243.9873483131501075 0 1 I I -0 -1 499.9999999999999432 forward I I I I 
	nullbs 
	nullbs 
	I I 
	0 
	0 
	0 
	} I I #
coedge $-1 -1 $-1 $220 $182 $104 $152 reversed $164 $-1 #
edge $-1 -1 $-1 $159 -0.6999999999999999556 $184 -0.1000000000000000056 $151 $221 forward @7 tangent #
coedge $-1 -1 $-1 $105 $142 $222 $223 reversed $38 $-1 #
coedge $-1 -1 $-1 $168 $167 $105 $155 forward $73 $-1 #
edge $-1 -1 $-1 $160 -22.65580381135008281 $224 -20.42934636719522601 $154 $225 reversed @7 unknown #
coedge $-1 -1 $-1 $226 $106 $167 $227 reversed $158 $-1 #
coedge $-1 -1 $-1 $106 $228 $220 $229 reversed $158 $-1 #
loop $-1 -1 $-1 $-1 $156 $163 #
vertex $-1 -1 $-1 $107 $230 #
vertex $-1 -1 $-1 $227 $231 #
ellipse-curve $-1 -1 $-1 486.4288875213435404 643.9873483131500507 350 0 0 -1 -436.4288875213435404 -243.9873483131501075 0 1 F 2.080564257602839362 F 8.363749564782425594 #
DXID-attrib $-1 -1 $-1 $-1 $109 @10 ASM ENTITY @36 8160a24e-c00a-4a23-93c0-32320735adca #
face $232 -1 $-1 $127 $158 $5 $-1 $233 forward single #
loop $-1 -1 $-1 $-1 $151 $109 #
plane-surface $-1 -1 $-1 554.5575900666465259 60.25933619677519459 0 0.4233370042561318547 0.905972284800944605 0 -9.059722848009446494 4.233370042561318769 0 forward_v I I I I #
coedge $-1 -1 $-1 $234 $222 $115 $172 reversed $112 $-1 #
coedge $-1 -1 $-1 $154 $114 $156 $227 forward $73 $-1 #
coedge $-1 -1 $-1 $114 $154 $235 $236 forward $73 $-1 #
coedge $-1 -1 $-1 $176 $237 $114 $170 reversed $177 $-1 #
edge $-1 -1 $-1 $238 -0.231823804500403019 $239 0.2318238045004037406 $169 $240 forward @7 unknown #
coedge $-1 -1 $-1 $116 $115 $142 $212 forward $44 $-1 #
edge $-1 -1 $-1 $179 -0.9999999999999996669 $241 -0.1284089463212455817 $166 $242 forward @7 tangent #
coedge $-1 -1 $-1 $143 $243 $116 $174 reversed $214 $-1 #
edge $-1 -1 $-1 $215 1.139763144360768976 $178 5 $173 $244 forward @7 unknown #
coedge $-1 -1 $-1 $245 $117 $243 $246 forward $177 $-1 #
coedge $-1 -1 $-1 $117 $169 $234 $247 reversed $177 $-1 #
loop $-1 -1 $-1 $-1 $117 $195 #
vertex $-1 -1 $-1 $118 $248 #
vertex $-1 -1 $-1 $118 $249 #
ellipse-curve $-1 -1 $-1 243.8253384476637109 260.645665416582176 411.5816140326327286 -0.4233370042561318547 -0.905972284800944605 -0 -44.06664668159383069 20.59118419709509595 -11.58161403263271438 1 F -1.804551589580363213 F 4.478633717599223019 #
coedge $-1 -1 $-1 $121 $119 $250 $251 reversed $27 $-1 #
coedge $-1 -1 $-1 $151 $252 $119 $183 forward $164 $-1 #
edge $-1 -1 $-1 $253 -20.74929635380561521 $184 10.1343420717169348 $182 $254 forward @7 unknown #
vertex $-1 -1 $-1 $120 $255 #
ellipse-curve $-1 -1 $-1 486.4288875213435404 643.9873483131500507 50 0 0 1 -436.4288875213435404 -243.9873483131501075 0 1 F -2.080564257602839362 F 4.20262104957674687 #
coedge $-1 -1 $-1 $256 $192 $121 $187 forward $201 $-1 #
edge $-1 -1 $-1 $189 -18.31344845508537844 $257 -18.27607456568117783 $186 $258 forward @7 unknown #
DXID-attrib $-1 -1 $-1 $-1 $122 @10 ASM ENTITY @36 775d6a98-8545-4801-b338-5a1d062d4bfa #
vertex $-1 -1 $-1 $187 $259 #
straight-curve $-1 -1 $-1 199.7586917660698305 281.2368496136772364 50 9.059722848009448271 -4.233370042561319657 0 I I #
point $-1 -1 $-1 244.1437141110455684 206.6112004203532138 50 #
coedge $-1 -1 $-1 $186 $132 $126 $193 forward $201 $-1 #
edge $-1 -1 $-1 $135 -1.25 $189 3.75 $192 $260 forward @7 unknown #
DXID-attrib $-1 -1 $-1 $-1 $127 @10 ASM ENTITY @36 0d29d553-576b-48e9-8e0b-c25726479ce7 #
face $261 -1 $-1 $262 $177 $5 $-1 $263 forward single #
plane-surface $-1 -1 $-1 387.7415660227615035 193.3974000252499081 25 0.4233370042561317437 0.905972284800944716 0 0 0 10 forward_v I I I I #
coedge $-1 -1 $-1 $137 $131 $264 $265 reversed $61 $-1 #
coedge $-1 -1 $-1 $266 $267 $131 $199 forward $268 $-1 #
edge $269 -1 $-1 $270 0 $203 10.70971662736373631 $198 $271 forward @7 unknown #
coedge $-1 -1 $-1 $132 $272 $266 $273 reversed $201 $-1 #
loop $-1 -1 $-1 $-1 $186 $274 #
DXID-attrib $-1 -1 $-1 $-1 $133 @10 ASM ENTITY @36 a06391b7-e6b9-4650-abf1-8ee4bd952172 #
vertex $-1 -1 $-1 $273 $275 #
straight-curve $-1 -1 $-1 599.9999999999998863 107.097166273637356 0 -10 -0 -0 F -0 F 2.794333356655656075 #
point $-1 -1 $-1 572.4304053274854596 107.097166273637356 0 #
coedge $-1 -1 $-1 $276 $277 $137 $207 forward $278 $-1 #
edge $279 -1 $-1 $210 0 $280 40 $206 $281 forward @7 unknown #
coedge $-1 -1 $-1 $145 $138 $277 $282 forward $146 $-1 #
DXID-attrib $-1 -1 $-1 $-1 $139 @10 ASM ENTITY @36 37e80aeb-199a-43ee-ab9a-4f15e98ee66f #
vertex $-1 -1 $-1 $207 $283 #
straight-curve $-1 -1 $-1 599.9999999999998863 400 0 -10 0 0 F 54.99999999999998579 F 60 #
edge $-1 -1 $-1 $241 -20.47587398543142356 $215 -16.26392895350337042 $171 $284 reversed @7 unknown #
coedge $-1 -1 $-1 $285 $143 $145 $217 forward $214 $-1 #
loop $-1 -1 $-1 $-1 $243 $262 #
vertex $-1 -1 $-1 $212 $286 #
ellipse-curve $-1 -1 $-1 486.4288875213435404 643.9873483131500507 400 0 0 1 -436.4288875213435404 -243.9873483131501075 0 1 F -2.080564257602839362 F 4.20262104957674687 #
edge $287 -1 $-1 $147 54.99999999999998579 $288 60 $145 $289 forward @7 unknown #
face $290 -1 $-1 $274 $146 $5 $-1 $291 forward single #
point $-1 -1 $-1 50 400 400 #
coedge $-1 -1 $-1 $252 $151 $157 $229 forward $164 $-1 #
straight-curve $-1 -1 $-1 274.7603853932776019 191.0012059126778183 0 -0 -0 -500 F -0.6999999999999999556 F -0.1000000000000000056 #
coedge $-1 -1 $-1 $166 $235 $153 $223 forward $112 $-1 #
edge $-1 -1 $-1 $224 4.826047179444885593 $241 4.872816350583409672 $222 $292 forward @7 unknown #
vertex $-1 -1 $-1 $155 $293 #
intcurve-curve $-1 -1 $-1 forward { surfintcur full nubs 3 open 5 
	19.81390515755357029 3 20.76120470881907565 2 21.70850426008458101 2 22.65580381135008281 2 23.59802197383633526 3 
	219.9807444807348702 220.8970659026327326 358.5340123534137433 
	222.3093820341234164 219.4305676687943389 356.6942689284346102 
	224.8381161169356801 217.8654442859890423 355.1016085281945607 
	230.1415956946180472 214.6548049125302668 352.542377750008427 
	232.9206225655368883 213.0069460659483411 351.5738197907240874 
	238.5405479235460291 209.7501796903906666 350.3024758663348166 
	241.3815392534916668 208.141311327352355 350.0000000000000568 
	246.8910724469313323 205.0892971477645403 350.0000000000000568 
	249.7469001896706118 203.5420368570174219 350.2992955875001826 
	252.6022933118477454 202.0313280573018346 350.9306583035238418 
	0.001853249735521307878 
	
	cone 243.6437308885110156 205.5411995984838995 400 -0.4233370042561317992 -0.905972284800944494 -0 -10.40748891839915302 4.863145655180856508 -48.66244947338650206 1 I I 0 1 50 forward I I I I 
	cone 486.4288875213435404 643.9873483131500507 0 0 0 1 -436.4288875213435404 -243.9873483131501075 0 1 I I -0 -1 499.9999999999999432 forward I I F 0 F 0.6239028915949235143 
	nullbs 
	nullbs 
	I I 
	0 
	0 
	0 
	} I I #
coedge $-1 -1 $-1 $294 $156 $237 $295 reversed $158 $-1 #
edge $-1 -1 $-1 $239 -5 $160 -0.1181052488933889977 $156 $296 forward @7 tangent #
coedge $-1 -1 $-1 $157 $294 $297 $298 reversed $158 $-1 #
edge $-1 -1 $-1 $159 -30.88363842552254113 $299 -1.503995165763185521e-15 $220 $300 forward @7 unknown #
point $-1 -1 $-1 274.7603853932776019 191.0012059126779036 350 #
point $-1 -1 $-1 244.1437141110455968 206.6112004203531569 350 #
DXID-attrib $-1 -1 $-1 $-1 $163 @10 ASM ENTITY @36 ed1cb753-9d1c-4372-b7e5-16d2076273c4 #
plane-surface $-1 -1 $-1 554.5575900666466396 60.2593361967752017 350 0 0 -1 -9.059722848009446494 4.233370042561318769 0 forward_v I I I I #
coedge $-1 -1 $-1 $235 $166 $176 $247 forward $112 $-1 #
coedge $-1 -1 $-1 $222 $234 $168 $236 reversed $112 $-1 #
edge $-1 -1 $-1 $224 0.3226071393146316413 $238 5.000000000000002665 $235 $301 forward @7 tangent #
coedge $-1 -1 $-1 $169 $245 $226 $295 forward $177 $-1 #
vertex $-1 -1 $-1 $170 $302 #
vertex $-1 -1 $-1 $170 $303 #
ellipse-curve $-1 -1 $-1 264.8105811013176094 250.8398138385311427 400 -0.4233370042561318547 -0.905972284800944605 -0 -10.40748891839915302 4.863145655180856508 -48.66244947338650206 1 F -2.909768849089389597 F 3.373416458090196635 #
vertex $-1 -1 $-1 $172 $304 #
straight-curve $-1 -1 $-1 202.4003320893999671 224.8131543656132294 366.8602544826369467 -21.1668502128065974 -45.29861424004722181 2.775557561562891745e-15 F -0.9999999999999996669 F -0.1284089463212455817 #
coedge $-1 -1 $-1 $173 $305 $175 $246 reversed $214 $-1 #
straight-curve $-1 -1 $-1 178.5918415532632366 235.9382353736300502 400 4.233370042561320545 9.059722848009446494 0 I I #
coedge $-1 -1 $-1 $237 $175 $306 $307 reversed $177 $-1 #
edge $308 -1 $-1 $178 0 $309 41.13500156832027699 $243 $310 forward @7 unknown #
edge $-1 -1 $-1 $179 -8.130085390092208542 $238 -5.54035776347898512 $176 $311 forward @7 unknown #
point $-1 -1 $-1 199.7586917660697736 281.2368496136772933 400 #
point $-1 -1 $-1 223.567182302206561 270.1117686056604725 366.8602544826369467 #
coedge $-1 -1 $-1 $312 $313 $181 $251 forward $314 $-1 #
edge $-1 -1 $-1 $257 -0.8506349167998870087 $253 4.149365083200112103 $250 $315 forward @7 unknown #
coedge $-1 -1 $-1 $182 $220 $312 $316 reversed $164 $-1 #
vertex $-1 -1 $-1 $183 $317 #
straight-curve $-1 -1 $-1 366.5747158099549097 148.0987857852026082 50 -9.059722848009446494 4.233370042561318769 0 I I #
point $-1 -1 $-1 274.7603853932776019 191.0012059126779036 50 #
coedge $-1 -1 $-1 $318 $186 $313 $319 forward $201 $-1 #
vertex $-1 -1 $-1 $251 $320 #
straight-curve $-1 -1 $-1 389.2959207766315899 107.097166273637356 50 -10 0 0 I I #
point $-1 -1 $-1 572.4304053274853459 107.097166273637356 50 #
straight-curve $-1 -1 $-1 572.4304053274856869 107.097166273637356 12.5 0 0 10 I I #
DXID-attrib $-1 -1 $-1 $-1 $195 @10 ASM ENTITY @36 87763194-b9be-4806-97b8-c55c0d46eb4c #
face $321 -1 $-1 $322 $214 $5 $-1 $323 forward single #
plane-surface $-1 -1 $-1 387.7415660227615035 193.3974000252498797 375 0.4233370042561318547 0.905972284800944605 0 0 0 10 forward_v I I I I #
coedge $-1 -1 $-1 $324 $325 $197 $265 forward $326 $-1 #
edge $327 -1 $-1 $280 0 $270 59.99999999999999289 $264 $328 forward @7 unknown #
coedge $-1 -1 $-1 $329 $198 $200 $273 forward $268 $-1 #
coedge $-1 -1 $-1 $198 $329 $324 $330 reversed $268 $-1 #
loop $-1 -1 $-1 $-1 $198 $331 #
DXID-attrib $-1 -1 $-1 $-1 $199 @10 ASM ENTITY @36 966cc604-8c57-467d-9fd4-561cb70687ad #
vertex $-1 -1 $-1 $265 $332 #
straight-curve $-1 -1 $-1 599.9999999999998863 0 0 -1.776356839400250465e-15 10 0 F 0 F 10.70971662736373631 #
coedge $-1 -1 $-1 $200 $306 $305 $333 reversed $201 $-1 #
edge $334 -1 $-1 $203 0 $335 40 $266 $336 forward @7 unknown #
face $337 -1 $-1 $331 $201 $5 $-1 $338 forward single #
point $-1 -1 $-1 599.9999999999998863 107.097166273637356 0 #
coedge $-1 -1 $-1 $339 $206 $325 $340 forward $278 $-1 #
coedge $-1 -1 $-1 $206 $339 $208 $282 reversed $278 $-1 #
loop $-1 -1 $-1 $-1 $206 $341 #
DXID-attrib $-1 -1 $-1 $-1 $207 @10 ASM ENTITY @36 350bbf31-c716-4de5-8db2-2bb7c8f86bbb #
vertex $-1 -1 $-1 $265 $342 #
straight-curve $-1 -1 $-1 -1.421085471520200372e-13 400 0 3.552713678800500929e-15 -10 0 F 0 F 40 #
edge $343 -1 $-1 $210 0 $288 40 $208 $344 forward @7 unknown #
point $-1 -1 $-1 -1.421085471520200372e-13 400 0 #
intcurve-curve $-1 -1 $-1 forward { surfintcur full nubs 3 periodic 33 
	0 3 0.9416448490267728122 2 1.883289698053545624 2 2.824934547080318659 2 3.766579396107091249 2 
	4.711340535372192662 2 5.656101674637294963 2 6.600862813902396375 2 7.545623953167497788 2 8.499011596927559253 2 
	9.452399240687622495 2 10.40578688444768396 2 11.35917452820774542 2 12.30172994030068523 2 13.24428535239362326 2 
	14.18684076448656128 2 15.12939617657950109 2 16.07195158867243379 2 17.01450700076537004 2 17.95706241285830629 2 
	18.89961782495124254 2 19.85300546871130223 2 20.80639311247136547 2 21.75978075623142871 2 22.7131683999914884 2 
	23.65792953925659248 2 24.60269067852169655 2 25.54745181778680063 2 26.49221295705190116 2 27.43385780607867019 2 
	28.37550265510544278 2 29.31714750413221537 2 30.25879235315898796 3 
	267.9809760776886378 194.2312922272925846 411.5816140326327286 
	267.9809760776886378 194.2312922272925846 414.7204301960553039 
	267.7106648702335292 194.3622385836707736 417.9664482509022605 
	266.5735842069887553 194.9171468708064481 424.4234787078254953 
	265.7070792706409179 195.3410392338299175 427.6345436672288542 
	263.4207001677444282 196.4731299192914094 433.7931022448680665 
	261.9990914852029391 197.1824275457953206 436.7455053479170033 
	258.7240102597929194 198.8425859694060023 442.2051199310554921 
	256.870479039135148 199.7938473018127183 444.7121744085405908 
	252.928320040059134 201.8533788974296783 449.1570486544842424 
	250.7042252777995373 203.0322546242348949 451.2446818482592903 
	245.8845594513426249 205.6428065729834316 454.9212521519023653 
	243.2892682202640344 207.074680076052914 456.5104160076944027 
	237.9061093597509853 210.1141146654859995 459.059892474123842 
	235.1139763949102246 211.7243335804303399 460.0222944674884502 
	229.532959898941499 215.0176747564593143 461.2832666122267256 
	226.7440802827093762 216.7008889278897641 461.5816140326327286 
	221.3579695541299941 220.0209488541449332 461.5816140326327286 
	218.5770372443305973 221.7716736517704703 461.2778882490928822 
	213.078442600043104 225.3105948530264584 460.0023318333380757 
	210.3606826677548725 227.0987592596941624 459.0308331709167078 
	205.1756363707008006 230.5791261735705859 456.4641718934906294 
	202.7042257845581048 232.2738407747507665 454.867056354810984 
	198.1531965428962963 235.4474825005774505 451.1764276964676128 
	196.0735528650693595 236.9260589853641079 449.0826439240449872 
	192.4243488359569483 239.5540048255101055 444.6422372529763152 
	190.7251378066856944 240.7966353485396098 442.1473903846754752 
	187.7340485985416194 243.0074837099191143 436.7106321595334748 
	186.4418465287661206 243.9755204900084209 433.7688253744527742 
	184.3675851140181408 245.539538953902678 427.626741913676085 
	183.583757768321675 246.1365648716871988 424.4213812299518054 
	182.5552694493803187 246.9215568628312951 417.9697741984443837 
	182.3108167729561728 247.1092825999151898 414.7234654062758636 
	182.310816772956116 247.1092825999151898 408.4397626589895935 
	182.5552694493802903 246.9215568628312667 405.1934538668209598 
	183.583757768321675 246.1365648716871419 398.741846835313595 
	184.3675851140180555 245.5395389539026496 395.536486151589429 
	186.4418465287660354 243.9755204900084209 389.3944026908127967 
	187.7340485985415341 243.0074837099191427 386.4525959057320961 
	190.7251378066856944 240.7966353485396098 381.0158376805900389 
	192.4243488359569483 239.5540048255101055 378.5209908122892557 
	196.0735528650693595 236.9260589853640795 374.0805841412205268 
	198.1531965428962963 235.4474825005774505 371.9868003687977875 
	202.7042257845581616 232.2738407747507665 368.2961717104544164 
	205.1756363707007722 230.5791261735706144 366.699056171774771 
	210.3606826677548156 227.0987592596942477 364.1323948943487494 
	213.078442600043104 225.3105948530265152 363.1608962319273815 
	218.5770372443305973 221.7716736517705272 361.8853398161725181 
	221.3579695541299088 220.0209488541449332 361.5816140326327286 
	226.7440802827093194 216.7008889278897641 361.5816140326327286 
	229.5329598989414706 215.0176747564592574 361.8799614530386179 
	235.113976394910253 211.7243335804303115 363.1409335977770638 
	237.9061093597510421 210.1141146654859426 364.1033355911415583 
	243.2892682202640344 207.0746800760528572 366.6528120575710545 
	245.8845594513426249 205.6428065729834884 368.2419759133630919 
	250.7042252777995373 203.0322546242349517 371.9185462170061101 
	252.9283200400590488 201.8533788974296783 374.0061794107812148 
	256.8704790391350912 199.7938473018127183 378.4510536567248096 
	258.7240102597928058 198.842585969406116 380.9581081342098514 
	261.9990914852029391 197.1824275457954059 386.4177227173483971 
	263.4207001677444282 196.4731299192914662 389.3701258203973339 
	265.7070792706409179 195.3410392338299175 395.5286843980366029 
	266.5735842069887553 194.9171468708065049 398.7397493574399618 
	267.710664870233586 194.3622385836708588 405.1967798143631398 
	267.9809760776886378 194.2312922272925846 408.4427978692101533 
	267.9809760776886378 194.2312922272925846 411.5816140326327286 
	0.001885379618866526129 
	
	cone 222.6584882348570886 215.3470511765349329 411.5816140326327286 -0.4233370042561319657 -0.905972284800944494 5.551115123125782702e-17 -44.06664668159383069 20.59118419709509595 -11.58161403263271438 1 I I 0 1 49.99999999999998579 reversed I I F 0 F 0.8733934550086238646 
	cone 486.4288875213435404 643.9873483131500507 0 0 0 1 -436.4288875213435404 -243.9873483131501075 0 1 I I -0 -1 499.9999999999999432 forward I I I I 
	nullbs 
	nullbs 
	I I 
	0 
	0 
	0 
	} I I #
coedge $-1 -1 $-1 $345 $213 $339 $346 forward $214 $-1 #
point $-1 -1 $-1 183.4168807042156004 246.2641735739143769 400 #
DXID-attrib $-1 -1 $-1 $-1 $217 @10 ASM ENTITY @36 32417331-2031-46cb-ba3c-832a61671b0f #
vertex $-1 -1 $-1 $217 $347 #
straight-curve $-1 -1 $-1 599.9999999999998863 400 400 -10 0 0 I I #
DXID-attrib $-1 -1 $-1 $-1 $218 @10 ASM ENTITY @36 3a9d810e-04a3-4e4e-949e-7c9361badb6d #
plane-surface $-1 -1 $-1 50 400 0 0 1 0 -10 0 0 forward_v I I I I #
ellipse-curve $-1 -1 $-1 486.4288875213435404 643.9873483131500507 326.9252285895566388 -0.4051631229091424702 0.189322063781565797 -0.8944271909999157444 -452.9861424004723176 211.6685021280657963 250.0000000000001137 0.8944271909999157444 F 1.133670822402866651 F 7.416856129582452439 #
point $-1 -1 $-1 224.7512901421449953 217.930034058541878 355.2786404500042181 #
coedge $-1 -1 $-1 $228 $226 $318 $348 reversed $158 $-1 #
edge $349 -1 $-1 $350 0.3635911392909261242 $239 34.31825282011224942 $226 $351 forward @7 unknown #
straight-curve $-1 -1 $-1 243.6437308885110156 205.5411995984838995 350 -4.233370042561317881 -9.059722848009444718 0 F -21.62236875523851865 F 22.10684330654922647 #
coedge $-1 -1 $-1 $313 $312 $228 $298 forward $314 $-1 #
edge $-1 -1 $-1 $299 -2.499999999999997335 $352 2.5 $297 $353 forward @7 unknown #
vertex $-1 -1 $-1 $229 $354 #
straight-curve $-1 -1 $-1 554.5575900666466396 60.25933619677516617 350 9.059722848009446494 -4.233370042561318769 0 I I #
straight-curve $-1 -1 $-1 223.3855747430538941 215.007302787562196 355.2786404500042181 4.233370042561317881 9.059722848009444718 2.482534153247272625e-16 F -22.10684330654922647 F 21.62236875523851865 #
point $-1 -1 $-1 244.5524249558604879 260.3059170276094392 355.2786404500042181 #
point $-1 -1 $-1 264.8105811013176094 250.8398138385311142 350 #
point $-1 -1 $-1 205.1183450221660678 230.6299016899902767 366.8602544826369467 #
coedge $-1 -1 $-1 $243 $355 $272 $333 forward $214 $-1 #
coedge $-1 -1 $-1 $272 $318 $245 $307 forward $201 $-1 #
edge $-1 -1 $-1 $350 16.25 $309 21.25 $306 $356 forward @7 unknown #
DXID-attrib $-1 -1 $-1 $-1 $246 @10 ASM ENTITY @36 d8fff4b0-aa07-4838-bafc-fd31c08caee0 #
vertex $-1 -1 $-1 $246 $357 #
straight-curve $-1 -1 $-1 199.7586917660697736 281.2368496136772364 400 9.059722848009446494 -4.233370042561318769 0 I I #
straight-curve $-1 -1 $-1 289.447398025561597 239.3276777102082065 330.5014072923887625 8.103262458182845407 -3.786441275631314163 -4.472135954999581386 I I #
coedge $-1 -1 $-1 $297 $250 $252 $316 forward $314 $-1 #
coedge $-1 -1 $-1 $250 $297 $256 $319 reversed $314 $-1 #
loop $-1 -1 $-1 $-1 $250 $322 #
straight-curve $-1 -1 $-1 569.0796013595743261 99.12878753553357569 50 -3.499815273359359491 -9.367566015372432275 0 I I #
edge $358 -1 $-1 $253 5 $299 35 $312 $359 forward @7 unknown #
point $-1 -1 $-1 554.5575900666467533 60.25933619677516617 50 #
coedge $-1 -1 $-1 $306 $256 $294 $348 forward $201 $-1 #
edge $360 -1 $-1 $257 5 $352 35 $256 $361 forward @7 unknown #
point $-1 -1 $-1 572.0566664334434108 107.097166273637356 50 #
DXID-attrib $-1 -1 $-1 $-1 $262 @10 ASM ENTITY @36 235903df-1e46-4f9f-bbcf-e9763f4b5b55 #
face $362 -1 $-1 $363 $314 $5 $-1 $364 forward single #
plane-surface $-1 -1 $-1 299.9999999999998863 200 400 0 0 1 10 0 0 forward_v I I I I #
coedge $-1 -1 $-1 $365 $264 $267 $330 forward $326 $-1 #
coedge $-1 -1 $-1 $264 $365 $276 $340 reversed $326 $-1 #
loop $-1 -1 $-1 $-1 $264 $363 #
DXID-attrib $-1 -1 $-1 $-1 $265 @10 ASM ENTITY @36 c2297df6-6770-40f7-ba94-a86e18f60cea #
straight-curve $-1 -1 $-1 0 0 0 10 0 0 F 0 F 59.99999999999999289 #
coedge $-1 -1 $-1 $267 $266 $355 $366 reversed $268 $-1 #
edge $367 -1 $-1 $270 0 $368 40 $267 $369 forward @7 unknown #
face $370 -1 $-1 $95 $268 $5 $-1 $371 forward single #
point $-1 -1 $-1 599.9999999999998863 0 0 #
edge $372 -1 $-1 $335 -0 $309 2.75695946725146257 $272 $373 forward @7 unknown #
DXID-attrib $-1 -1 $-1 $-1 $273 @10 ASM ENTITY @36 70528c5a-6ed4-4308-ae6b-4795a6c28931 #
vertex $-1 -1 $-1 $366 $374 #
straight-curve $-1 -1 $-1 599.9999999999998863 107.097166273637356 0 0 0 10 I I #
DXID-attrib $-1 -1 $-1 $-1 $274 @10 ASM ENTITY @36 ecf7ed85-eb54-42fe-b9ea-0adf88bbcbc6 #
plane-surface $-1 -1 $-1 599.9999999999998863 107.097166273637356 0 0 1 0 -10 -0 -0 forward_v I I I I #
coedge $-1 -1 $-1 $277 $276 $285 $346 reversed $278 $-1 #
edge $375 -1 $-1 $280 0 $376 40 $276 $377 forward @7 unknown #
face $378 -1 $-1 $218 $278 $5 $-1 $379 forward single #
point $-1 -1 $-1 0 0 0 #
DXID-attrib $-1 -1 $-1 $-1 $282 @10 ASM ENTITY @36 16ea3940-b045-4df8-bf21-54a69168c169 #
straight-curve $-1 -1 $-1 -1.421085471520200372e-13 400 0 0 0 10 I I #
coedge $-1 -1 $-1 $355 $285 $365 $380 forward $214 $-1 #
edge $381 -1 $-1 $288 0 $376 40 $339 $382 forward @7 unknown #
point $-1 -1 $-1 -1.421085471520200372e-13 400 400 #
edge $-1 -1 $-1 $352 -0.5222128599879951594 $350 -0.4848389705837945485 $318 $383 forward @7 unknown #
DXID-attrib $-1 -1 $-1 $-1 $295 @10 ASM ENTITY @36 1286bf2f-298c-4f60-99e2-932152001631 #
vertex $-1 -1 $-1 $295 $384 #
straight-curve $-1 -1 $-1 575.7244402794531197 105.5579504368224093 350 -9.059722848009446494 4.233370042561318769 0 I I #
vertex $-1 -1 $-1 $348 $385 #
straight-curve $-1 -1 $-1 563.3071282500450252 83.67825123520628949 350 3.499815273359359491 9.367566015372432275 0 I I #
point $-1 -1 $-1 554.5575900666466396 60.2593361967752017 350 #
coedge $-1 -1 $-1 $305 $345 $329 $366 forward $214 $-1 #
straight-curve $-1 -1 $-1 572.4304053274854596 107.097166273637356 187.5 0 0 10 I I #
point $-1 -1 $-1 572.4304053274853459 107.097166273637356 400 #
DXID-attrib $-1 -1 $-1 $-1 $316 @10 ASM ENTITY @36 54112c46-8cb7-4b13-aca9-452e7e96d052 #
straight-curve $-1 -1 $-1 554.5575900666465259 60.25933619677519459 0 0 0 10 I I #
DXID-attrib $-1 -1 $-1 $-1 $319 @10 ASM ENTITY @36 9235ec58-e584-4f36-a398-fb42e7eb7b97 #
straight-curve $-1 -1 $-1 572.0566664334434108 107.097166273637356 0 0 0 10 I I #
DXID-attrib $-1 -1 $-1 $-1 $322 @10 ASM ENTITY @36 b89f1cad-b3f5-4934-9382-1d02898cf4a4 #
face $386 -1 $-1 $341 $326 $5 $-1 $387 forward single #
plane-surface $-1 -1 $-1 572.0566664334434108 107.097166273637356 0 -0.9367566015372432719 0.3499815273359359602 0 -3.499815273359359491 -9.367566015372432275 -0 forward_v I I I I #
coedge $-1 -1 $-1 $325 $324 $345 $380 reversed $326 $-1 #
edge $388 -1 $-1 $368 0 $335 10.70971662736373631 $329 $389 forward @7 unknown #
DXID-attrib $-1 -1 $-1 $-1 $330 @10 ASM ENTITY @36 5fc7a81c-5132-44f1-b46d-08d9407173e0 #
vertex $-1 -1 $-1 $380 $390 #
straight-curve $-1 -1 $-1 599.9999999999998863 0 0 0 0 10 I I #
DXID-attrib $-1 -1 $-1 $-1 $331 @10 ASM ENTITY @36 a7535d6f-a295-4fbe-bf72-520fb32206b5 #
plane-surface $-1 -1 $-1 599.9999999999998863 0 0 1 1.776356839400250563e-16 0 -1.776356839400250465e-15 10 0 forward_v I I I I #
DXID-attrib $-1 -1 $-1 $-1 $333 @10 ASM ENTITY @36 0a743ffa-ea29-4397-b2d7-4e847c7511b5 #
straight-curve $-1 -1 $-1 599.9999999999998863 107.097166273637356 400 -10 -0 -0 I I #
point $-1 -1 $-1 599.9999999999998863 107.097166273637356 400 #
DXID-attrib $-1 -1 $-1 $-1 $340 @10 ASM ENTITY @36 dd473891-1587-4302-8c5f-a52b2d9c5c72 #
vertex $-1 -1 $-1 $346 $391 #
straight-curve $-1 -1 $-1 0 0 0 0 0 10 I I #
DXID-attrib $-1 -1 $-1 $-1 $341 @10 ASM ENTITY @36 e92a1db6-dd49-4d2d-98b7-887326bea62a #
plane-surface $-1 -1 $-1 -1.421085471520200372e-13 400 0 -1 -3.552713678800501127e-16 0 3.552713678800500929e-15 -10 0 forward_v I I I I #
edge $392 -1 $-1 $376 0 $368 59.99999999999999289 $365 $393 forward @7 unknown #
DXID-attrib $-1 -1 $-1 $-1 $346 @10 ASM ENTITY @36 57d7f5a2-15ff-49c1-9ff6-d2198b3b9ed6 #
straight-curve $-1 -1 $-1 -1.421085471520200372e-13 400 400 3.552713678800500929e-15 -10 0 I I #
straight-curve $-1 -1 $-1 577.2787950333233766 107.097166273637356 350 10 0 0 I I #
point $-1 -1 $-1 572.4304053274853459 107.097166273637356 350 #
point $-1 -1 $-1 572.0566664334434108 107.097166273637356 350 #
DXID-attrib $-1 -1 $-1 $-1 $363 @10 ASM ENTITY @36 4290eb32-cf55-4ed5-a027-886e7f873446 #
plane-surface $-1 -1 $-1 0 0 0 0 -1 0 10 0 0 forward_v I I I I #
DXID-attrib $-1 -1 $-1 $-1 $366 @10 ASM ENTITY @36 eafce87f-9b34-4a79-9efd-77a3527732c8 #
straight-curve $-1 -1 $-1 599.9999999999998863 0 400 -1.776356839400250465e-15 10 0 I I #
point $-1 -1 $-1 599.9999999999998863 0 400 #
point $-1 -1 $-1 0 0 400 #
DXID-attrib $-1 -1 $-1 $-1 $380 @10 ASM ENTITY @36 494c2b58-88b9-4cba-a3d8-b77bf0901829 #
straight-curve $-1 -1 $-1 0 0 400 10 0 0 I I #
End-of-ACIS-data 